<svg xmlns="http://www.w3.org/2000/svg" width="500" height="374" viewBox="0 0 500 374" fill="none"><path d="M500 328.396H0V328.646H500V328.396Z" fill="#EBEBEB"></path><path d="M449.901 344.492H416.779V344.742H449.901V344.492Z" fill="#EBEBEB"></path><path d="M331.22 347.207H322.527V347.457H331.22V347.207Z" fill="#EBEBEB"></path><path d="M415.778 335.207H396.586V335.457H415.778V335.207Z" fill="#EBEBEB"></path><path d="M95.652 336.887H52.459V337.137H95.652V336.887Z" fill="#EBEBEB"></path><path d="M110.89 336.887H104.557V337.137H110.89V336.887Z" fill="#EBEBEB"></path><path d="M225.147 341.109H131.471V341.359H225.147V341.109Z" fill="#EBEBEB"></path><path d="M237.014 283.799H43.915C40.768 283.799 38.207 281.238 38.207 278.091V6.65917C38.207 3.51217 40.768 0.951172 43.915 0.951172H237.014C240.16 0.951172 242.721 3.51217 242.721 6.65917V278.091C242.721 281.238 240.16 283.799 237.014 283.799ZM43.915 1.20217C40.905 1.20217 38.457 3.65017 38.457 6.66017V278.092C38.457 281.102 40.905 283.55 43.915 283.55H237.014C240.023 283.55 242.471 281.102 242.471 278.092V6.65917C242.471 3.65017 240.023 1.20117 237.014 1.20117L43.915 1.20217Z" fill="#EBEBEB"></path><path d="M453.311 283.799H260.213C257.066 283.799 254.506 281.238 254.506 278.091V6.65917C254.506 3.51217 257.067 0.951172 260.213 0.951172H453.311C456.459 0.951172 459.019 3.51217 459.019 6.65917V278.091C459.02 281.238 456.459 283.799 453.311 283.799ZM260.213 1.20217C257.204 1.20217 254.756 3.65017 254.756 6.66017V278.092C254.756 281.102 257.204 283.55 260.213 283.55H453.311C456.321 283.55 458.769 281.102 458.769 278.092V6.65917C458.769 3.65017 456.321 1.20117 453.311 1.20117L260.213 1.20217Z" fill="#EBEBEB"></path><path d="M433.418 21.0098H66.5801V287.484H433.418V21.0098Z" fill="#E0E0E0"></path><path d="M429 25.998H72V281.998H429V25.998Z" fill="#F5F5F5"></path><path d="M72 219.998V281.998H429V211.998H419V190.998H413V176.998H405V155.998H403V176.998H395V190.998H389V211.998H378V217.998H373V240.998H372V207.998H369V228.998H366V178.998H364V199.998H356V192.998H353V163.998H351.217H347V134.998H345V138.998H304V126.998H297V80.998H294V126.998H284V138.998H280V198.998H259V180.998H266V177.998H259V172.998H239V126.998H234V119.998H210V126.998H207V190.998H196V219.998H190V196.998H185V190.998H174V169.998H168V155.998H161V134.998H158V155.998H151V169.998H145V190.998H134V196.998H129V219.998H122V158.998H119V179.998H110V219.998H106V142.998H103V113.998H100V124.408L82 132.828V142.998H74V219.998H72Z" fill="#E6E6E6"></path><path d="M322.145 142.133H319.312V144.966H322.145V142.133Z" fill="#F0F0F0"></path><path d="M322.145 146.883H319.312V149.716H322.145V146.883Z" fill="#F0F0F0"></path><path d="M322.145 165.883H319.312V168.716H322.145V165.883Z" fill="#F0F0F0"></path><path d="M322.145 170.633H319.312V173.466H322.145V170.633Z" fill="#F0F0F0"></path><path d="M322.145 175.383H319.312V178.216H322.145V175.383Z" fill="#F0F0F0"></path><path d="M322.145 189.633H319.312V192.466H322.145V189.633Z" fill="#F0F0F0"></path><path d="M322.145 194.383H319.312V197.216H322.145V194.383Z" fill="#F0F0F0"></path><path d="M317.645 161.133H314.812V163.966H317.645V161.133Z" fill="#F0F0F0"></path><path d="M317.645 165.883H314.812V168.716H317.645V165.883Z" fill="#F0F0F0"></path><path d="M317.645 170.633H314.812V173.466H317.645V170.633Z" fill="#F0F0F0"></path><path d="M317.645 175.383H314.812V178.216H317.645V175.383Z" fill="#F0F0F0"></path><path d="M317.645 180.133H314.812V182.966H317.645V180.133Z" fill="#F0F0F0"></path><path d="M317.645 189.633H314.812V192.466H317.645V189.633Z" fill="#F0F0F0"></path><path d="M317.645 194.383H314.812V197.216H317.645V194.383Z" fill="#F0F0F0"></path><path d="M313.145 142.133H310.312V144.966H313.145V142.133Z" fill="#F0F0F0"></path><path d="M313.145 146.883H310.312V149.716H313.145V146.883Z" fill="#F0F0F0"></path><path d="M313.145 151.633H310.312V154.466H313.145V151.633Z" fill="#F0F0F0"></path><path d="M313.145 156.383H310.312V159.216H313.145V156.383Z" fill="#F0F0F0"></path><path d="M313.145 161.133H310.312V163.966H313.145V161.133Z" fill="#F0F0F0"></path><path d="M313.145 165.883H310.312V168.716H313.145V165.883Z" fill="#F0F0F0"></path><path d="M313.145 170.633H310.312V173.466H313.145V170.633Z" fill="#F0F0F0"></path><path d="M313.145 175.383H310.312V178.216H313.145V175.383Z" fill="#F0F0F0"></path><path d="M313.145 180.133H310.312V182.966H313.145V180.133Z" fill="#F0F0F0"></path><path d="M313.145 184.883H310.312V187.716H313.145V184.883Z" fill="#F0F0F0"></path><path d="M313.145 194.383H310.312V197.216H313.145V194.383Z" fill="#F0F0F0"></path><path d="M308.645 142.133H305.812V144.966H308.645V142.133Z" fill="#F0F0F0"></path><path d="M308.645 146.883H305.812V149.716H308.645V146.883Z" fill="#F0F0F0"></path><path d="M308.645 151.633H305.812V154.466H308.645V151.633Z" fill="#F0F0F0"></path><path d="M308.645 156.383H305.812V159.216H308.645V156.383Z" fill="#F0F0F0"></path><path d="M308.645 161.133H305.812V163.966H308.645V161.133Z" fill="#F0F0F0"></path><path d="M308.645 165.883H305.812V168.716H308.645V165.883Z" fill="#F0F0F0"></path><path d="M308.645 170.633H305.812V173.466H308.645V170.633Z" fill="#F0F0F0"></path><path d="M308.645 213.383H305.812V216.216H308.645V213.383Z" fill="#F0F0F0"></path><path d="M304.145 142.133H301.312V144.966H304.145V142.133Z" fill="#F0F0F0"></path><path d="M304.145 146.883H301.312V149.716H304.145V146.883Z" fill="#F0F0F0"></path><path d="M304.145 151.633H301.312V154.466H304.145V151.633Z" fill="#F0F0F0"></path><path d="M304.145 156.383H301.312V159.216H304.145V156.383Z" fill="#F0F0F0"></path><path d="M304.145 161.133H301.312V163.966H304.145V161.133Z" fill="#F0F0F0"></path><path d="M304.145 165.883H301.312V168.716H304.145V165.883Z" fill="#F0F0F0"></path><path d="M304.145 170.633H301.312V173.466H304.145V170.633Z" fill="#F0F0F0"></path><path d="M304.145 175.383H301.312V178.216H304.145V175.383Z" fill="#F0F0F0"></path><path d="M304.145 203.883H301.312V206.716H304.145V203.883Z" fill="#F0F0F0"></path><path d="M304.145 208.633H301.312V211.466H304.145V208.633Z" fill="#F0F0F0"></path><path d="M304.145 213.383H301.312V216.216H304.145V213.383Z" fill="#F0F0F0"></path><path d="M304.145 218.133H301.312V220.966H304.145V218.133Z" fill="#F0F0F0"></path><path d="M304.145 237.133H301.312V239.966H304.145V237.133Z" fill="#F0F0F0"></path><path d="M299.645 142.133H296.812V144.966H299.645V142.133Z" fill="#F0F0F0"></path><path d="M299.645 146.883H296.812V149.716H299.645V146.883Z" fill="#F0F0F0"></path><path d="M299.645 151.633H296.812V154.466H299.645V151.633Z" fill="#F0F0F0"></path><path d="M299.645 156.383H296.812V159.216H299.645V156.383Z" fill="#F0F0F0"></path><path d="M299.645 161.133H296.812V163.966H299.645V161.133Z" fill="#F0F0F0"></path><path d="M299.645 165.883H296.812V168.716H299.645V165.883Z" fill="#F0F0F0"></path><path d="M299.645 170.633H296.812V173.466H299.645V170.633Z" fill="#F0F0F0"></path><path d="M299.645 175.383H296.812V178.216H299.645V175.383Z" fill="#F0F0F0"></path><path d="M299.645 180.133H296.812V182.966H299.645V180.133Z" fill="#F0F0F0"></path><path d="M299.645 184.883H296.812V187.716H299.645V184.883Z" fill="#F0F0F0"></path><path d="M299.645 199.133H296.812V201.966H299.645V199.133Z" fill="#F0F0F0"></path><path d="M299.645 203.883H296.812V206.716H299.645V203.883Z" fill="#F0F0F0"></path><path d="M299.645 208.633H296.812V211.466H299.645V208.633Z" fill="#F0F0F0"></path><path d="M299.645 213.383H296.812V216.216H299.645V213.383Z" fill="#F0F0F0"></path><path d="M299.645 218.133H296.812V220.966H299.645V218.133Z" fill="#F0F0F0"></path><path d="M299.645 237.133H296.812V239.966H299.645V237.133Z" fill="#F0F0F0"></path><path d="M295.145 142.133H292.312V144.966H295.145V142.133Z" fill="#F0F0F0"></path><path d="M295.145 146.883H292.312V149.716H295.145V146.883Z" fill="#F0F0F0"></path><path d="M295.145 151.633H292.312V154.466H295.145V151.633Z" fill="#F0F0F0"></path><path d="M295.145 156.383H292.312V159.216H295.145V156.383Z" fill="#F0F0F0"></path><path d="M295.145 161.133H292.312V163.966H295.145V161.133Z" fill="#F0F0F0"></path><path d="M295.145 165.883H292.312V168.716H295.145V165.883Z" fill="#F0F0F0"></path><path d="M295.145 170.633H292.312V173.466H295.145V170.633Z" fill="#F0F0F0"></path><path d="M295.145 175.383H292.312V178.216H295.145V175.383Z" fill="#F0F0F0"></path><path d="M295.145 180.133H292.312V182.966H295.145V180.133Z" fill="#F0F0F0"></path><path d="M295.145 184.883H292.312V187.716H295.145V184.883Z" fill="#F0F0F0"></path><path d="M295.145 189.633H292.312V192.466H295.145V189.633Z" fill="#F0F0F0"></path><path d="M295.145 194.383H292.312V197.216H295.145V194.383Z" fill="#F0F0F0"></path><path d="M295.145 199.133H292.312V201.966H295.145V199.133Z" fill="#F0F0F0"></path><path d="M295.145 203.883H292.312V206.716H295.145V203.883Z" fill="#F0F0F0"></path><path d="M295.145 208.633H292.312V211.466H295.145V208.633Z" fill="#F0F0F0"></path><path d="M295.145 213.383H292.312V216.216H295.145V213.383Z" fill="#F0F0F0"></path><path d="M295.145 218.133H292.312V220.966H295.145V218.133Z" fill="#F0F0F0"></path><path d="M295.145 222.883H292.312V225.716H295.145V222.883Z" fill="#F0F0F0"></path><path d="M290.645 142.133H287.812V144.966H290.645V142.133Z" fill="#F0F0F0"></path><path d="M290.645 146.883H287.812V149.716H290.645V146.883Z" fill="#F0F0F0"></path><path d="M290.645 151.633H287.812V154.466H290.645V151.633Z" fill="#F0F0F0"></path><path d="M290.645 156.383H287.812V159.216H290.645V156.383Z" fill="#F0F0F0"></path><path d="M290.645 161.133H287.812V163.966H290.645V161.133Z" fill="#F0F0F0"></path><path d="M290.645 165.883H287.812V168.716H290.645V165.883Z" fill="#F0F0F0"></path><path d="M290.645 170.633H287.812V173.466H290.645V170.633Z" fill="#F0F0F0"></path><path d="M290.645 175.383H287.812V178.216H290.645V175.383Z" fill="#F0F0F0"></path><path d="M290.645 180.133H287.812V182.966H290.645V180.133Z" fill="#F0F0F0"></path><path d="M290.645 184.883H287.812V187.716H290.645V184.883Z" fill="#F0F0F0"></path><path d="M290.645 199.133H287.812V201.966H290.645V199.133Z" fill="#F0F0F0"></path><path d="M290.645 203.883H287.812V206.716H290.645V203.883Z" fill="#F0F0F0"></path><path d="M290.645 208.633H287.812V211.466H290.645V208.633Z" fill="#F0F0F0"></path><path d="M290.645 213.383H287.812V216.216H290.645V213.383Z" fill="#F0F0F0"></path><path d="M286.145 142.133H283.312V144.966H286.145V142.133Z" fill="#F0F0F0"></path><path d="M286.145 146.883H283.312V149.716H286.145V146.883Z" fill="#F0F0F0"></path><path d="M286.145 151.633H283.312V154.466H286.145V151.633Z" fill="#F0F0F0"></path><path d="M286.145 156.383H283.312V159.216H286.145V156.383Z" fill="#F0F0F0"></path><path d="M286.145 161.133H283.312V163.966H286.145V161.133Z" fill="#F0F0F0"></path><path d="M286.145 165.883H283.312V168.716H286.145V165.883Z" fill="#F0F0F0"></path><path d="M286.145 170.633H283.312V173.466H286.145V170.633Z" fill="#F0F0F0"></path><path d="M286.145 175.383H283.312V178.216H286.145V175.383Z" fill="#F0F0F0"></path><path d="M286.145 180.133H283.312V182.966H286.145V180.133Z" fill="#F0F0F0"></path><path d="M286.145 184.883H283.312V187.716H286.145V184.883Z" fill="#F0F0F0"></path><path d="M286.145 199.133H283.312V201.966H286.145V199.133Z" fill="#F0F0F0"></path><path d="M286.145 203.883H283.312V206.716H286.145V203.883Z" fill="#F0F0F0"></path><path d="M286.145 208.633H283.312V211.466H286.145V208.633Z" fill="#F0F0F0"></path><path d="M235.478 129.801H232.645V132.634H235.478V129.801Z" fill="#F0F0F0"></path><path d="M235.478 134.551H232.645V137.384H235.478V134.551Z" fill="#F0F0F0"></path><path d="M235.478 139.301H232.645V142.134H235.478V139.301Z" fill="#F0F0F0"></path><path d="M235.478 144.051H232.645V146.884H235.478V144.051Z" fill="#F0F0F0"></path><path d="M235.478 148.801H232.645V151.634H235.478V148.801Z" fill="#F0F0F0"></path><path d="M235.478 153.551H232.645V156.384H235.478V153.551Z" fill="#F0F0F0"></path><path d="M235.478 158.301H232.645V161.134H235.478V158.301Z" fill="#F0F0F0"></path><path d="M235.478 163.051H232.645V165.884H235.478V163.051Z" fill="#F0F0F0"></path><path d="M235.478 177.301H232.645V180.134H235.478V177.301Z" fill="#F0F0F0"></path><path d="M235.478 182.051H232.645V184.884H235.478V182.051Z" fill="#F0F0F0"></path><path d="M230.978 129.801H228.145V132.634H230.978V129.801Z" fill="#F0F0F0"></path><path d="M230.978 134.551H228.145V137.384H230.978V134.551Z" fill="#F0F0F0"></path><path d="M230.978 139.301H228.145V142.134H230.978V139.301Z" fill="#F0F0F0"></path><path d="M230.978 144.051H228.145V146.884H230.978V144.051Z" fill="#F0F0F0"></path><path d="M230.978 148.801H228.145V151.634H230.978V148.801Z" fill="#F0F0F0"></path><path d="M230.978 153.551H228.145V156.384H230.978V153.551Z" fill="#F0F0F0"></path><path d="M230.978 158.301H228.145V161.134H230.978V158.301Z" fill="#F0F0F0"></path><path d="M230.978 163.051H228.145V165.884H230.978V163.051Z" fill="#F0F0F0"></path><path d="M230.978 182.051H228.145V184.884H230.978V182.051Z" fill="#F0F0F0"></path><path d="M226.478 129.801H223.645V132.634H226.478V129.801Z" fill="#F0F0F0"></path><path d="M226.478 134.551H223.645V137.384H226.478V134.551Z" fill="#F0F0F0"></path><path d="M226.478 139.301H223.645V142.134H226.478V139.301Z" fill="#F0F0F0"></path><path d="M226.478 144.051H223.645V146.884H226.478V144.051Z" fill="#F0F0F0"></path><path d="M226.478 148.801H223.645V151.634H226.478V148.801Z" fill="#F0F0F0"></path><path d="M226.478 153.551H223.645V156.384H226.478V153.551Z" fill="#F0F0F0"></path><path d="M226.478 158.301H223.645V161.134H226.478V158.301Z" fill="#F0F0F0"></path><path d="M226.478 163.051H223.645V165.884H226.478V163.051Z" fill="#F0F0F0"></path><path d="M221.978 129.801H219.145V132.634H221.978V129.801Z" fill="#F0F0F0"></path><path d="M221.978 134.551H219.145V137.384H221.978V134.551Z" fill="#F0F0F0"></path><path d="M221.978 139.301H219.145V142.134H221.978V139.301Z" fill="#F0F0F0"></path><path d="M221.978 144.051H219.145V146.884H221.978V144.051Z" fill="#F0F0F0"></path><path d="M221.978 148.801H219.145V151.634H221.978V148.801Z" fill="#F0F0F0"></path><path d="M221.978 153.551H219.145V156.384H221.978V153.551Z" fill="#F0F0F0"></path><path d="M221.978 163.051H219.145V165.884H221.978V163.051Z" fill="#F0F0F0"></path><path d="M221.978 167.801H219.145V170.634H221.978V167.801Z" fill="#F0F0F0"></path><path d="M221.978 182.051H219.145V184.884H221.978V182.051Z" fill="#F0F0F0"></path><path d="M221.978 186.801H219.145V189.634H221.978V186.801Z" fill="#F0F0F0"></path><path d="M221.978 191.551H219.145V194.384H221.978V191.551Z" fill="#F0F0F0"></path><path d="M221.978 196.301H219.145V199.134H221.978V196.301Z" fill="#F0F0F0"></path><path d="M221.978 201.051H219.145V203.884H221.978V201.051Z" fill="#F0F0F0"></path><path d="M221.978 205.801H219.145V208.634H221.978V205.801Z" fill="#F0F0F0"></path><path d="M221.978 210.551H219.145V213.384H221.978V210.551Z" fill="#F0F0F0"></path><path d="M217.478 129.801H214.645V132.634H217.478V129.801Z" fill="#F0F0F0"></path><path d="M217.478 134.551H214.645V137.384H217.478V134.551Z" fill="#F0F0F0"></path><path d="M217.478 139.301H214.645V142.134H217.478V139.301Z" fill="#F0F0F0"></path><path d="M217.478 144.051H214.645V146.884H217.478V144.051Z" fill="#F0F0F0"></path><path d="M217.478 148.801H214.645V151.634H217.478V148.801Z" fill="#F0F0F0"></path><path d="M217.478 153.551H214.645V156.384H217.478V153.551Z" fill="#F0F0F0"></path><path d="M217.478 167.801H214.645V170.634H217.478V167.801Z" fill="#F0F0F0"></path><path d="M217.478 172.551H214.645V175.384H217.478V172.551Z" fill="#F0F0F0"></path><path d="M217.478 177.301H214.645V180.134H217.478V177.301Z" fill="#F0F0F0"></path><path d="M217.478 182.051H214.645V184.884H217.478V182.051Z" fill="#F0F0F0"></path><path d="M217.478 186.801H214.645V189.634H217.478V186.801Z" fill="#F0F0F0"></path><path d="M217.478 191.551H214.645V194.384H217.478V191.551Z" fill="#F0F0F0"></path><path d="M217.478 196.301H214.645V199.134H217.478V196.301Z" fill="#F0F0F0"></path><path d="M217.478 201.051H214.645V203.884H217.478V201.051Z" fill="#F0F0F0"></path><path d="M217.478 205.801H214.645V208.634H217.478V205.801Z" fill="#F0F0F0"></path><path d="M217.478 210.551H214.645V213.384H217.478V210.551Z" fill="#F0F0F0"></path><path d="M217.478 215.301H214.645V218.134H217.478V215.301Z" fill="#F0F0F0"></path><path d="M217.478 224.801H214.645V227.634H217.478V224.801Z" fill="#F0F0F0"></path><path d="M212.978 129.801H210.145V132.634H212.978V129.801Z" fill="#F0F0F0"></path><path d="M212.978 134.551H210.145V137.384H212.978V134.551Z" fill="#F0F0F0"></path><path d="M212.978 139.301H210.145V142.134H212.978V139.301Z" fill="#F0F0F0"></path><path d="M212.978 144.051H210.145V146.884H212.978V144.051Z" fill="#F0F0F0"></path><path d="M212.978 148.801H210.145V151.634H212.978V148.801Z" fill="#F0F0F0"></path><path d="M212.978 153.551H210.145V156.384H212.978V153.551Z" fill="#F0F0F0"></path><path d="M212.978 167.801H210.145V170.634H212.978V167.801Z" fill="#F0F0F0"></path><path d="M212.978 172.551H210.145V175.384H212.978V172.551Z" fill="#F0F0F0"></path><path d="M212.978 177.301H210.145V180.134H212.978V177.301Z" fill="#F0F0F0"></path><path d="M212.978 182.051H210.145V184.884H212.978V182.051Z" fill="#F0F0F0"></path><path d="M212.978 196.301H210.145V199.134H212.978V196.301Z" fill="#F0F0F0"></path><path d="M212.978 201.051H210.145V203.884H212.978V201.051Z" fill="#F0F0F0"></path><path d="M212.978 205.801H210.145V208.634H212.978V205.801Z" fill="#F0F0F0"></path><path d="M212.978 210.551H210.145V213.384H212.978V210.551Z" fill="#F0F0F0"></path><path d="M212.978 215.301H210.145V218.134H212.978V215.301Z" fill="#F0F0F0"></path><path d="M212.978 224.801H210.145V227.634H212.978V224.801Z" fill="#F0F0F0"></path><path d="M212.978 229.551H210.145V232.384H212.978V229.551Z" fill="#F0F0F0"></path><path d="M172.146 173.969H169.312V176.802H172.146V173.969Z" fill="#F0F0F0"></path><path d="M172.146 178.719H169.312V181.552H172.146V178.719Z" fill="#F0F0F0"></path><path d="M172.146 183.469H169.312V186.302H172.146V183.469Z" fill="#F0F0F0"></path><path d="M172.146 188.219H169.312V191.052H172.146V188.219Z" fill="#F0F0F0"></path><path d="M172.146 192.969H169.312V195.802H172.146V192.969Z" fill="#F0F0F0"></path><path d="M172.146 197.719H169.312V200.552H172.146V197.719Z" fill="#F0F0F0"></path><path d="M172.146 202.469H169.312V205.302H172.146V202.469Z" fill="#F0F0F0"></path><path d="M172.146 216.719H169.312V219.552H172.146V216.719Z" fill="#F0F0F0"></path><path d="M172.146 221.469H169.312V224.302H172.146V221.469Z" fill="#F0F0F0"></path><path d="M172.146 226.219H169.312V229.052H172.146V226.219Z" fill="#F0F0F0"></path><path d="M167.646 173.969H164.812V176.802H167.646V173.969Z" fill="#F0F0F0"></path><path d="M167.646 178.719H164.812V181.552H167.646V178.719Z" fill="#F0F0F0"></path><path d="M167.646 183.469H164.812V186.302H167.646V183.469Z" fill="#F0F0F0"></path><path d="M167.646 188.219H164.812V191.052H167.646V188.219Z" fill="#F0F0F0"></path><path d="M167.646 192.969H164.812V195.802H167.646V192.969Z" fill="#F0F0F0"></path><path d="M167.646 197.719H164.812V200.552H167.646V197.719Z" fill="#F0F0F0"></path><path d="M167.646 202.469H164.812V205.302H167.646V202.469Z" fill="#F0F0F0"></path><path d="M163.146 173.969H160.312V176.802H163.146V173.969Z" fill="#F0F0F0"></path><path d="M163.146 178.719H160.312V181.552H163.146V178.719Z" fill="#F0F0F0"></path><path d="M163.146 183.469H160.312V186.302H163.146V183.469Z" fill="#F0F0F0"></path><path d="M163.146 188.219H160.312V191.052H163.146V188.219Z" fill="#F0F0F0"></path><path d="M163.146 192.969H160.312V195.802H163.146V192.969Z" fill="#F0F0F0"></path><path d="M163.146 197.719H160.312V200.552H163.146V197.719Z" fill="#F0F0F0"></path><path d="M163.146 202.469H160.312V205.302H163.146V202.469Z" fill="#F0F0F0"></path><path d="M158.646 173.969H155.812V176.802H158.646V173.969Z" fill="#F0F0F0"></path><path d="M158.646 178.719H155.812V181.552H158.646V178.719Z" fill="#F0F0F0"></path><path d="M158.646 183.469H155.812V186.302H158.646V183.469Z" fill="#F0F0F0"></path><path d="M158.646 188.219H155.812V191.052H158.646V188.219Z" fill="#F0F0F0"></path><path d="M158.646 192.969H155.812V195.802H158.646V192.969Z" fill="#F0F0F0"></path><path d="M158.646 197.719H155.812V200.552H158.646V197.719Z" fill="#F0F0F0"></path><path d="M158.646 202.469H155.812V205.302H158.646V202.469Z" fill="#F0F0F0"></path><path d="M158.646 207.219H155.812V210.052H158.646V207.219Z" fill="#F0F0F0"></path><path d="M158.646 211.969H155.812V214.802H158.646V211.969Z" fill="#F0F0F0"></path><path d="M158.646 216.719H155.812V219.552H158.646V216.719Z" fill="#F0F0F0"></path><path d="M158.646 221.469H155.812V224.302H158.646V221.469Z" fill="#F0F0F0"></path><path d="M154.146 173.969H151.312V176.802H154.146V173.969Z" fill="#F0F0F0"></path><path d="M154.146 178.719H151.312V181.552H154.146V178.719Z" fill="#F0F0F0"></path><path d="M154.146 183.469H151.312V186.302H154.146V183.469Z" fill="#F0F0F0"></path><path d="M154.146 188.219H151.312V191.052H154.146V188.219Z" fill="#F0F0F0"></path><path d="M154.146 192.969H151.312V195.802H154.146V192.969Z" fill="#F0F0F0"></path><path d="M154.146 197.719H151.312V200.552H154.146V197.719Z" fill="#F0F0F0"></path><path d="M154.146 202.469H151.312V205.302H154.146V202.469Z" fill="#F0F0F0"></path><path d="M154.146 207.219H151.312V210.052H154.146V207.219Z" fill="#F0F0F0"></path><path d="M154.146 211.969H151.312V214.802H154.146V211.969Z" fill="#F0F0F0"></path><path d="M154.146 216.719H151.312V219.552H154.146V216.719Z" fill="#F0F0F0"></path><path d="M154.146 221.469H151.312V224.302H154.146V221.469Z" fill="#F0F0F0"></path><path d="M154.146 226.219H151.312V229.052H154.146V226.219Z" fill="#F0F0F0"></path><path d="M154.146 240.469H151.312V243.302H154.146V240.469Z" fill="#F0F0F0"></path><path d="M154.146 245.219H151.312V248.052H154.146V245.219Z" fill="#F0F0F0"></path><path d="M149.646 173.969H146.812V176.802H149.646V173.969Z" fill="#F0F0F0"></path><path d="M149.646 178.719H146.812V181.552H149.646V178.719Z" fill="#F0F0F0"></path><path d="M149.646 183.469H146.812V186.302H149.646V183.469Z" fill="#F0F0F0"></path><path d="M149.646 197.719H146.812V200.552H149.646V197.719Z" fill="#F0F0F0"></path><path d="M149.646 202.469H146.812V205.302H149.646V202.469Z" fill="#F0F0F0"></path><path d="M149.646 207.219H146.812V210.052H149.646V207.219Z" fill="#F0F0F0"></path><path d="M149.646 211.969H146.812V214.802H149.646V211.969Z" fill="#F0F0F0"></path><path d="M149.646 216.719H146.812V219.552H149.646V216.719Z" fill="#F0F0F0"></path><path d="M149.646 221.469H146.812V224.302H149.646V221.469Z" fill="#F0F0F0"></path><path d="M149.646 226.219H146.812V229.052H149.646V226.219Z" fill="#F0F0F0"></path><path d="M149.646 240.469H146.812V243.302H149.646V240.469Z" fill="#F0F0F0"></path><path d="M149.646 245.219H146.812V248.052H149.646V245.219Z" fill="#F0F0F0"></path><path d="M149.646 249.969H146.812V252.802H149.646V249.969Z" fill="#F0F0F0"></path><path d="M102.478 145.469H99.6445V148.302H102.478V145.469Z" fill="#F0F0F0"></path><path d="M102.478 150.219H99.6445V153.052H102.478V150.219Z" fill="#F0F0F0"></path><path d="M102.478 154.969H99.6445V157.802H102.478V154.969Z" fill="#F0F0F0"></path><path d="M102.478 159.719H99.6445V162.552H102.478V159.719Z" fill="#F0F0F0"></path><path d="M102.478 164.469H99.6445V167.302H102.478V164.469Z" fill="#F0F0F0"></path><path d="M102.478 169.219H99.6445V172.052H102.478V169.219Z" fill="#F0F0F0"></path><path d="M102.478 173.969H99.6445V176.802H102.478V173.969Z" fill="#F0F0F0"></path><path d="M102.478 178.719H99.6445V181.552H102.478V178.719Z" fill="#F0F0F0"></path><path d="M102.478 183.469H99.6445V186.302H102.478V183.469Z" fill="#F0F0F0"></path><path d="M102.478 188.219H99.6445V191.052H102.478V188.219Z" fill="#F0F0F0"></path><path d="M102.478 192.969H99.6445V195.802H102.478V192.969Z" fill="#F0F0F0"></path><path d="M102.478 197.719H99.6445V200.552H102.478V197.719Z" fill="#F0F0F0"></path><path d="M102.478 202.469H99.6445V205.302H102.478V202.469Z" fill="#F0F0F0"></path><path d="M102.478 207.219H99.6445V210.052H102.478V207.219Z" fill="#F0F0F0"></path><path d="M102.478 211.969H99.6445V214.802H102.478V211.969Z" fill="#F0F0F0"></path><path d="M102.478 216.719H99.6445V219.552H102.478V216.719Z" fill="#F0F0F0"></path><path d="M102.478 221.469H99.6445V224.302H102.478V221.469Z" fill="#F0F0F0"></path><path d="M102.478 226.219H99.6445V229.052H102.478V226.219Z" fill="#F0F0F0"></path><path d="M102.478 230.969H99.6445V233.802H102.478V230.969Z" fill="#F0F0F0"></path><path d="M102.478 235.719H99.6445V238.552H102.478V235.719Z" fill="#F0F0F0"></path><path d="M102.478 240.469H99.6445V243.302H102.478V240.469Z" fill="#F0F0F0"></path><path d="M102.478 245.219H99.6445V248.052H102.478V245.219Z" fill="#F0F0F0"></path><path d="M102.478 249.969H99.6445V252.802H102.478V249.969Z" fill="#F0F0F0"></path><path d="M97.9775 145.469H95.1445V148.302H97.9775V145.469Z" fill="#F0F0F0"></path><path d="M97.9775 150.219H95.1445V153.052H97.9775V150.219Z" fill="#F0F0F0"></path><path d="M97.9775 154.969H95.1445V157.802H97.9775V154.969Z" fill="#F0F0F0"></path><path d="M97.9775 159.719H95.1445V162.552H97.9775V159.719Z" fill="#F0F0F0"></path><path d="M97.9775 164.469H95.1445V167.302H97.9775V164.469Z" fill="#F0F0F0"></path><path d="M97.9775 169.219H95.1445V172.052H97.9775V169.219Z" fill="#F0F0F0"></path><path d="M97.9775 173.969H95.1445V176.802H97.9775V173.969Z" fill="#F0F0F0"></path><path d="M97.9775 178.719H95.1445V181.552H97.9775V178.719Z" fill="#F0F0F0"></path><path d="M97.9775 183.469H95.1445V186.302H97.9775V183.469Z" fill="#F0F0F0"></path><path d="M97.9775 188.219H95.1445V191.052H97.9775V188.219Z" fill="#F0F0F0"></path><path d="M97.9775 192.969H95.1445V195.802H97.9775V192.969Z" fill="#F0F0F0"></path><path d="M97.9775 197.719H95.1445V200.552H97.9775V197.719Z" fill="#F0F0F0"></path><path d="M97.9775 202.469H95.1445V205.302H97.9775V202.469Z" fill="#F0F0F0"></path><path d="M97.9775 207.219H95.1445V210.052H97.9775V207.219Z" fill="#F0F0F0"></path><path d="M97.9775 211.969H95.1445V214.802H97.9775V211.969Z" fill="#F0F0F0"></path><path d="M97.9775 216.719H95.1445V219.552H97.9775V216.719Z" fill="#F0F0F0"></path><path d="M97.9775 221.469H95.1445V224.302H97.9775V221.469Z" fill="#F0F0F0"></path><path d="M97.9775 226.219H95.1445V229.052H97.9775V226.219Z" fill="#F0F0F0"></path><path d="M97.9775 230.969H95.1445V233.802H97.9775V230.969Z" fill="#F0F0F0"></path><path d="M93.4775 145.469H90.6445V148.302H93.4775V145.469Z" fill="#F0F0F0"></path><path d="M93.4775 150.219H90.6445V153.052H93.4775V150.219Z" fill="#F0F0F0"></path><path d="M93.4775 154.969H90.6445V157.802H93.4775V154.969Z" fill="#F0F0F0"></path><path d="M93.4775 159.719H90.6445V162.552H93.4775V159.719Z" fill="#F0F0F0"></path><path d="M93.4775 164.469H90.6445V167.302H93.4775V164.469Z" fill="#F0F0F0"></path><path d="M93.4775 169.219H90.6445V172.052H93.4775V169.219Z" fill="#F0F0F0"></path><path d="M93.4775 173.969H90.6445V176.802H93.4775V173.969Z" fill="#F0F0F0"></path><path d="M93.4775 178.719H90.6445V181.552H93.4775V178.719Z" fill="#F0F0F0"></path><path d="M93.4775 183.469H90.6445V186.302H93.4775V183.469Z" fill="#F0F0F0"></path><path d="M93.4775 188.219H90.6445V191.052H93.4775V188.219Z" fill="#F0F0F0"></path><path d="M93.4775 192.969H90.6445V195.802H93.4775V192.969Z" fill="#F0F0F0"></path><path d="M93.4775 197.719H90.6445V200.552H93.4775V197.719Z" fill="#F0F0F0"></path><path d="M93.4775 202.469H90.6445V205.302H93.4775V202.469Z" fill="#F0F0F0"></path><path d="M93.4775 207.219H90.6445V210.052H93.4775V207.219Z" fill="#F0F0F0"></path><path d="M93.4775 211.969H90.6445V214.802H93.4775V211.969Z" fill="#F0F0F0"></path><path d="M93.4775 216.719H90.6445V219.552H93.4775V216.719Z" fill="#F0F0F0"></path><path d="M93.4775 221.469H90.6445V224.302H93.4775V221.469Z" fill="#F0F0F0"></path><path d="M93.4775 226.219H90.6445V229.052H93.4775V226.219Z" fill="#F0F0F0"></path><path d="M93.4775 230.969H90.6445V233.802H93.4775V230.969Z" fill="#F0F0F0"></path><path d="M88.9775 145.469H86.1445V148.302H88.9775V145.469Z" fill="#F0F0F0"></path><path d="M88.9775 150.219H86.1445V153.052H88.9775V150.219Z" fill="#F0F0F0"></path><path d="M88.9775 154.969H86.1445V157.802H88.9775V154.969Z" fill="#F0F0F0"></path><path d="M88.9775 159.719H86.1445V162.552H88.9775V159.719Z" fill="#F0F0F0"></path><path d="M88.9775 164.469H86.1445V167.302H88.9775V164.469Z" fill="#F0F0F0"></path><path d="M88.9775 169.219H86.1445V172.052H88.9775V169.219Z" fill="#F0F0F0"></path><path d="M88.9775 173.969H86.1445V176.802H88.9775V173.969Z" fill="#F0F0F0"></path><path d="M88.9775 178.719H86.1445V181.552H88.9775V178.719Z" fill="#F0F0F0"></path><path d="M88.9775 183.469H86.1445V186.302H88.9775V183.469Z" fill="#F0F0F0"></path><path d="M88.9775 188.219H86.1445V191.052H88.9775V188.219Z" fill="#F0F0F0"></path><path d="M88.9775 192.969H86.1445V195.802H88.9775V192.969Z" fill="#F0F0F0"></path><path d="M88.9775 197.719H86.1445V200.552H88.9775V197.719Z" fill="#F0F0F0"></path><path d="M88.9775 202.469H86.1445V205.302H88.9775V202.469Z" fill="#F0F0F0"></path><path d="M88.9775 207.219H86.1445V210.052H88.9775V207.219Z" fill="#F0F0F0"></path><path d="M88.9775 211.969H86.1445V214.802H88.9775V211.969Z" fill="#F0F0F0"></path><path d="M84.4775 145.469H81.6445V148.302H84.4775V145.469Z" fill="#F0F0F0"></path><path d="M84.4775 150.219H81.6445V153.052H84.4775V150.219Z" fill="#F0F0F0"></path><path d="M84.4775 154.969H81.6445V157.802H84.4775V154.969Z" fill="#F0F0F0"></path><path d="M84.4775 159.719H81.6445V162.552H84.4775V159.719Z" fill="#F0F0F0"></path><path d="M84.4775 164.469H81.6445V167.302H84.4775V164.469Z" fill="#F0F0F0"></path><path d="M84.4775 169.219H81.6445V172.052H84.4775V169.219Z" fill="#F0F0F0"></path><path d="M84.4775 173.969H81.6445V176.802H84.4775V173.969Z" fill="#F0F0F0"></path><path d="M84.4775 178.719H81.6445V181.552H84.4775V178.719Z" fill="#F0F0F0"></path><path d="M84.4775 183.469H81.6445V186.302H84.4775V183.469Z" fill="#F0F0F0"></path><path d="M84.4775 188.219H81.6445V191.052H84.4775V188.219Z" fill="#F0F0F0"></path><path d="M84.4775 192.969H81.6445V195.802H84.4775V192.969Z" fill="#F0F0F0"></path><path d="M84.4775 197.719H81.6445V200.552H84.4775V197.719Z" fill="#F0F0F0"></path><path d="M84.4775 202.469H81.6445V205.302H84.4775V202.469Z" fill="#F0F0F0"></path><path d="M79.9775 145.469H77.1445V148.302H79.9775V145.469Z" fill="#F0F0F0"></path><path d="M79.9775 150.219H77.1445V153.052H79.9775V150.219Z" fill="#F0F0F0"></path><path d="M79.9775 154.969H77.1445V157.802H79.9775V154.969Z" fill="#F0F0F0"></path><path d="M79.9775 159.719H77.1445V162.552H79.9775V159.719Z" fill="#F0F0F0"></path><path d="M79.9775 164.469H77.1445V167.302H79.9775V164.469Z" fill="#F0F0F0"></path><path d="M79.9775 169.219H77.1445V172.052H79.9775V169.219Z" fill="#F0F0F0"></path><path d="M79.9775 173.969H77.1445V176.802H79.9775V173.969Z" fill="#F0F0F0"></path><path d="M79.9775 178.719H77.1445V181.552H79.9775V178.719Z" fill="#F0F0F0"></path><path d="M79.9775 183.469H77.1445V186.302H79.9775V183.469Z" fill="#F0F0F0"></path><path d="M79.9775 188.219H77.1445V191.052H79.9775V188.219Z" fill="#F0F0F0"></path><path d="M79.9775 192.969H77.1445V195.802H79.9775V192.969Z" fill="#F0F0F0"></path><path d="M79.9775 197.719H77.1445V200.552H79.9775V197.719Z" fill="#F0F0F0"></path><path d="M410.645 180.133H407.812V182.966H410.645V180.133Z" fill="#F0F0F0"></path><path d="M410.645 184.883H407.812V187.716H410.645V184.883Z" fill="#F0F0F0"></path><path d="M410.645 189.633H407.812V192.466H410.645V189.633Z" fill="#F0F0F0"></path><path d="M410.645 194.383H407.812V197.216H410.645V194.383Z" fill="#F0F0F0"></path><path d="M410.645 199.133H407.812V201.966H410.645V199.133Z" fill="#F0F0F0"></path><path d="M410.645 203.883H407.812V206.716H410.645V203.883Z" fill="#F0F0F0"></path><path d="M410.645 208.633H407.812V211.466H410.645V208.633Z" fill="#F0F0F0"></path><path d="M410.645 213.383H407.812V216.216H410.645V213.383Z" fill="#F0F0F0"></path><path d="M410.645 218.133H407.812V220.966H410.645V218.133Z" fill="#F0F0F0"></path><path d="M410.645 222.883H407.812V225.716H410.645V222.883Z" fill="#F0F0F0"></path><path d="M410.645 227.633H407.812V230.466H410.645V227.633Z" fill="#F0F0F0"></path><path d="M410.645 232.383H407.812V235.216H410.645V232.383Z" fill="#F0F0F0"></path><path d="M410.645 237.133H407.812V239.966H410.645V237.133Z" fill="#F0F0F0"></path><path d="M410.645 241.883H407.812V244.716H410.645V241.883Z" fill="#F0F0F0"></path><path d="M410.645 246.633H407.812V249.466H410.645V246.633Z" fill="#F0F0F0"></path><path d="M410.645 251.383H407.812V254.216H410.645V251.383Z" fill="#F0F0F0"></path><path d="M410.645 256.133H407.812V258.966H410.645V256.133Z" fill="#F0F0F0"></path><path d="M410.645 260.883H407.812V263.716H410.645V260.883Z" fill="#F0F0F0"></path><path d="M410.645 265.633H407.812V268.466H410.645V265.633Z" fill="#F0F0F0"></path><path d="M410.645 270.383H407.812V273.216H410.645V270.383Z" fill="#F0F0F0"></path><path d="M406.145 180.133H403.312V182.966H406.145V180.133Z" fill="#F0F0F0"></path><path d="M406.145 184.883H403.312V187.716H406.145V184.883Z" fill="#F0F0F0"></path><path d="M406.145 189.633H403.312V192.466H406.145V189.633Z" fill="#F0F0F0"></path><path d="M406.145 194.383H403.312V197.216H406.145V194.383Z" fill="#F0F0F0"></path><path d="M406.145 199.133H403.312V201.966H406.145V199.133Z" fill="#F0F0F0"></path><path d="M406.145 203.883H403.312V206.716H406.145V203.883Z" fill="#F0F0F0"></path><path d="M406.145 208.633H403.312V211.466H406.145V208.633Z" fill="#F0F0F0"></path><path d="M406.145 213.383H403.312V216.216H406.145V213.383Z" fill="#F0F0F0"></path><path d="M406.145 218.133H403.312V220.966H406.145V218.133Z" fill="#F0F0F0"></path><path d="M406.145 222.883H403.312V225.716H406.145V222.883Z" fill="#F0F0F0"></path><path d="M406.145 227.633H403.312V230.466H406.145V227.633Z" fill="#F0F0F0"></path><path d="M406.145 232.383H403.312V235.216H406.145V232.383Z" fill="#F0F0F0"></path><path d="M406.145 237.133H403.312V239.966H406.145V237.133Z" fill="#F0F0F0"></path><path d="M406.145 241.883H403.312V244.716H406.145V241.883Z" fill="#F0F0F0"></path><path d="M406.145 246.633H403.312V249.466H406.145V246.633Z" fill="#F0F0F0"></path><path d="M406.145 251.383H403.312V254.216H406.145V251.383Z" fill="#F0F0F0"></path><path d="M406.145 256.133H403.312V258.966H406.145V256.133Z" fill="#F0F0F0"></path><path d="M406.145 260.883H403.312V263.716H406.145V260.883Z" fill="#F0F0F0"></path><path d="M401.645 180.133H398.812V182.966H401.645V180.133Z" fill="#F0F0F0"></path><path d="M401.645 184.883H398.812V187.716H401.645V184.883Z" fill="#F0F0F0"></path><path d="M401.645 189.633H398.812V192.466H401.645V189.633Z" fill="#F0F0F0"></path><path d="M401.645 194.383H398.812V197.216H401.645V194.383Z" fill="#F0F0F0"></path><path d="M401.645 199.133H398.812V201.966H401.645V199.133Z" fill="#F0F0F0"></path><path d="M401.645 203.883H398.812V206.716H401.645V203.883Z" fill="#F0F0F0"></path><path d="M401.645 208.633H398.812V211.466H401.645V208.633Z" fill="#F0F0F0"></path><path d="M401.645 213.383H398.812V216.216H401.645V213.383Z" fill="#F0F0F0"></path><path d="M401.645 218.133H398.812V220.966H401.645V218.133Z" fill="#F0F0F0"></path><path d="M401.645 222.883H398.812V225.716H401.645V222.883Z" fill="#F0F0F0"></path><path d="M401.645 227.633H398.812V230.466H401.645V227.633Z" fill="#F0F0F0"></path><path d="M401.645 232.383H398.812V235.216H401.645V232.383Z" fill="#F0F0F0"></path><path d="M401.645 237.133H398.812V239.966H401.645V237.133Z" fill="#F0F0F0"></path><path d="M401.645 241.883H398.812V244.716H401.645V241.883Z" fill="#F0F0F0"></path><path d="M401.645 246.633H398.812V249.466H401.645V246.633Z" fill="#F0F0F0"></path><path d="M401.645 251.383H398.812V254.216H401.645V251.383Z" fill="#F0F0F0"></path><path d="M401.645 256.133H398.812V258.966H401.645V256.133Z" fill="#F0F0F0"></path><path d="M401.645 260.883H398.812V263.716H401.645V260.883Z" fill="#F0F0F0"></path><path d="M427.478 214.801H424.645V217.634H427.478V214.801Z" fill="#F0F0F0"></path><path d="M427.478 219.551H424.645V222.384H427.478V219.551Z" fill="#F0F0F0"></path><path d="M427.478 224.301H424.645V227.134H427.478V224.301Z" fill="#F0F0F0"></path><path d="M427.478 229.051H424.645V231.884H427.478V229.051Z" fill="#F0F0F0"></path><path d="M427.478 233.801H424.645V236.634H427.478V233.801Z" fill="#F0F0F0"></path><path d="M427.478 238.551H424.645V241.384H427.478V238.551Z" fill="#F0F0F0"></path><path d="M427.478 243.301H424.645V246.134H427.478V243.301Z" fill="#F0F0F0"></path><path d="M427.478 248.051H424.645V250.884H427.478V248.051Z" fill="#F0F0F0"></path><path d="M427.478 252.801H424.645V255.634H427.478V252.801Z" fill="#F0F0F0"></path><path d="M427.478 257.551H424.645V260.384H427.478V257.551Z" fill="#F0F0F0"></path><path d="M427.478 262.301H424.645V265.134H427.478V262.301Z" fill="#F0F0F0"></path><path d="M427.478 267.051H424.645V269.884H427.478V267.051Z" fill="#F0F0F0"></path><path d="M427.478 271.801H424.645V274.634H427.478V271.801Z" fill="#F0F0F0"></path><path d="M422.978 214.801H420.145V217.634H422.978V214.801Z" fill="#F0F0F0"></path><path d="M422.978 219.551H420.145V222.384H422.978V219.551Z" fill="#F0F0F0"></path><path d="M422.978 224.301H420.145V227.134H422.978V224.301Z" fill="#F0F0F0"></path><path d="M422.978 229.051H420.145V231.884H422.978V229.051Z" fill="#F0F0F0"></path><path d="M422.978 233.801H420.145V236.634H422.978V233.801Z" fill="#F0F0F0"></path><path d="M422.978 238.551H420.145V241.384H422.978V238.551Z" fill="#F0F0F0"></path><path d="M422.978 243.301H420.145V246.134H422.978V243.301Z" fill="#F0F0F0"></path><path d="M422.978 248.051H420.145V250.884H422.978V248.051Z" fill="#F0F0F0"></path><path d="M422.978 252.801H420.145V255.634H422.978V252.801Z" fill="#F0F0F0"></path><path d="M422.978 257.551H420.145V260.384H422.978V257.551Z" fill="#F0F0F0"></path><path d="M422.978 262.301H420.145V265.134H422.978V262.301Z" fill="#F0F0F0"></path><path d="M422.978 267.051H420.145V269.884H422.978V267.051Z" fill="#F0F0F0"></path><path d="M422.978 271.801H420.145V274.634H422.978V271.801Z" fill="#F0F0F0"></path><path d="M418.478 214.801H415.645V217.634H418.478V214.801Z" fill="#F0F0F0"></path><path d="M418.478 219.551H415.645V222.384H418.478V219.551Z" fill="#F0F0F0"></path><path d="M418.478 224.301H415.645V227.134H418.478V224.301Z" fill="#F0F0F0"></path><path d="M418.478 229.051H415.645V231.884H418.478V229.051Z" fill="#F0F0F0"></path><path d="M418.478 233.801H415.645V236.634H418.478V233.801Z" fill="#F0F0F0"></path><path d="M418.478 238.551H415.645V241.384H418.478V238.551Z" fill="#F0F0F0"></path><path d="M418.478 243.301H415.645V246.134H418.478V243.301Z" fill="#F0F0F0"></path><path d="M418.478 248.051H415.645V250.884H418.478V248.051Z" fill="#F0F0F0"></path><path d="M418.478 252.801H415.645V255.634H418.478V252.801Z" fill="#F0F0F0"></path><path d="M418.478 257.551H415.645V260.384H418.478V257.551Z" fill="#F0F0F0"></path><path d="M418.478 262.301H415.645V265.134H418.478V262.301Z" fill="#F0F0F0"></path><path d="M418.478 267.051H415.645V269.884H418.478V267.051Z" fill="#F0F0F0"></path><path d="M418.478 271.801H415.645V274.634H418.478V271.801Z" fill="#F0F0F0"></path><path d="M418.478 276.551H415.645V279.384H418.478V276.551Z" fill="#F0F0F0"></path><path d="M393.478 216.219H390.645V219.052H393.478V216.219Z" fill="#F0F0F0"></path><path d="M393.478 220.969H390.645V223.802H393.478V220.969Z" fill="#F0F0F0"></path><path d="M393.478 225.719H390.645V228.552H393.478V225.719Z" fill="#F0F0F0"></path><path d="M393.478 230.469H390.645V233.302H393.478V230.469Z" fill="#F0F0F0"></path><path d="M393.478 235.219H390.645V238.052H393.478V235.219Z" fill="#F0F0F0"></path><path d="M393.478 239.969H390.645V242.802H393.478V239.969Z" fill="#F0F0F0"></path><path d="M393.478 244.719H390.645V247.552H393.478V244.719Z" fill="#F0F0F0"></path><path d="M393.478 249.469H390.645V252.302H393.478V249.469Z" fill="#F0F0F0"></path><path d="M393.478 254.219H390.645V257.052H393.478V254.219Z" fill="#F0F0F0"></path><path d="M393.478 258.969H390.645V261.802H393.478V258.969Z" fill="#F0F0F0"></path><path d="M393.478 273.219H390.645V276.052H393.478V273.219Z" fill="#F0F0F0"></path><path d="M388.978 216.219H386.145V219.052H388.978V216.219Z" fill="#F0F0F0"></path><path d="M388.978 220.969H386.145V223.802H388.978V220.969Z" fill="#F0F0F0"></path><path d="M388.978 225.719H386.145V228.552H388.978V225.719Z" fill="#F0F0F0"></path><path d="M388.978 230.469H386.145V233.302H388.978V230.469Z" fill="#F0F0F0"></path><path d="M388.978 235.219H386.145V238.052H388.978V235.219Z" fill="#F0F0F0"></path><path d="M388.978 239.969H386.145V242.802H388.978V239.969Z" fill="#F0F0F0"></path><path d="M388.978 244.719H386.145V247.552H388.978V244.719Z" fill="#F0F0F0"></path><path d="M388.978 249.469H386.145V252.302H388.978V249.469Z" fill="#F0F0F0"></path><path d="M388.978 254.219H386.145V257.052H388.978V254.219Z" fill="#F0F0F0"></path><path d="M388.978 268.469H386.145V271.302H388.978V268.469Z" fill="#F0F0F0"></path><path d="M388.978 273.219H386.145V276.052H388.978V273.219Z" fill="#F0F0F0"></path><path d="M384.478 216.219H381.645V219.052H384.478V216.219Z" fill="#F0F0F0"></path><path d="M384.478 220.969H381.645V223.802H384.478V220.969Z" fill="#F0F0F0"></path><path d="M384.478 225.719H381.645V228.552H384.478V225.719Z" fill="#F0F0F0"></path><path d="M384.478 230.469H381.645V233.302H384.478V230.469Z" fill="#F0F0F0"></path><path d="M384.478 235.219H381.645V238.052H384.478V235.219Z" fill="#F0F0F0"></path><path d="M384.478 239.969H381.645V242.802H384.478V239.969Z" fill="#F0F0F0"></path><path d="M384.478 244.719H381.645V247.552H384.478V244.719Z" fill="#F0F0F0"></path><path d="M384.478 249.469H381.645V252.302H384.478V249.469Z" fill="#F0F0F0"></path><path d="M384.478 263.719H381.645V266.552H384.478V263.719Z" fill="#F0F0F0"></path><path d="M384.478 268.469H381.645V271.302H384.478V268.469Z" fill="#F0F0F0"></path><path d="M384.478 273.219H381.645V276.052H384.478V273.219Z" fill="#F0F0F0"></path><path d="M342.645 144.051H339.812V146.884H342.645V144.051Z" fill="#F0F0F0"></path><path d="M342.645 148.801H339.812V151.634H342.645V148.801Z" fill="#F0F0F0"></path><path d="M342.645 153.551H339.812V156.384H342.645V153.551Z" fill="#F0F0F0"></path><path d="M342.645 158.301H339.812V161.134H342.645V158.301Z" fill="#F0F0F0"></path><path d="M342.645 163.051H339.812V165.884H342.645V163.051Z" fill="#F0F0F0"></path><path d="M342.645 167.801H339.812V170.634H342.645V167.801Z" fill="#F0F0F0"></path><path d="M342.645 172.551H339.812V175.384H342.645V172.551Z" fill="#F0F0F0"></path><path d="M342.645 177.301H339.812V180.134H342.645V177.301Z" fill="#F0F0F0"></path><path d="M342.645 182.051H339.812V184.884H342.645V182.051Z" fill="#F0F0F0"></path><path d="M342.645 186.801H339.812V189.634H342.645V186.801Z" fill="#F0F0F0"></path><path d="M342.645 191.551H339.812V194.384H342.645V191.551Z" fill="#F0F0F0"></path><path d="M342.645 196.301H339.812V199.134H342.645V196.301Z" fill="#F0F0F0"></path><path d="M342.645 201.051H339.812V203.884H342.645V201.051Z" fill="#F0F0F0"></path><path d="M342.645 205.801H339.812V208.634H342.645V205.801Z" fill="#F0F0F0"></path><path d="M342.645 210.551H339.812V213.384H342.645V210.551Z" fill="#F0F0F0"></path><path d="M342.645 215.301H339.812V218.134H342.645V215.301Z" fill="#F0F0F0"></path><path d="M342.645 220.051H339.812V222.884H342.645V220.051Z" fill="#F0F0F0"></path><path d="M342.645 229.551H339.812V232.384H342.645V229.551Z" fill="#F0F0F0"></path><path d="M342.645 234.301H339.812V237.134H342.645V234.301Z" fill="#F0F0F0"></path><path d="M342.645 239.051H339.812V241.884H342.645V239.051Z" fill="#F0F0F0"></path><path d="M342.645 243.801H339.812V246.634H342.645V243.801Z" fill="#F0F0F0"></path><path d="M342.645 248.551H339.812V251.384H342.645V248.551Z" fill="#F0F0F0"></path><path d="M338.145 144.051H335.312V146.884H338.145V144.051Z" fill="#F0F0F0"></path><path d="M338.145 148.801H335.312V151.634H338.145V148.801Z" fill="#F0F0F0"></path><path d="M338.145 153.551H335.312V156.384H338.145V153.551Z" fill="#F0F0F0"></path><path d="M338.145 158.301H335.312V161.134H338.145V158.301Z" fill="#F0F0F0"></path><path d="M338.145 163.051H335.312V165.884H338.145V163.051Z" fill="#F0F0F0"></path><path d="M338.145 167.801H335.312V170.634H338.145V167.801Z" fill="#F0F0F0"></path><path d="M338.145 172.551H335.312V175.384H338.145V172.551Z" fill="#F0F0F0"></path><path d="M338.145 177.301H335.312V180.134H338.145V177.301Z" fill="#F0F0F0"></path><path d="M338.145 182.051H335.312V184.884H338.145V182.051Z" fill="#F0F0F0"></path><path d="M338.145 186.801H335.312V189.634H338.145V186.801Z" fill="#F0F0F0"></path><path d="M338.145 191.551H335.312V194.384H338.145V191.551Z" fill="#F0F0F0"></path><path d="M338.145 196.301H335.312V199.134H338.145V196.301Z" fill="#F0F0F0"></path><path d="M338.145 201.051H335.312V203.884H338.145V201.051Z" fill="#F0F0F0"></path><path d="M338.145 205.801H335.312V208.634H338.145V205.801Z" fill="#F0F0F0"></path><path d="M338.145 210.551H335.312V213.384H338.145V210.551Z" fill="#F0F0F0"></path><path d="M338.145 215.301H335.312V218.134H338.145V215.301Z" fill="#F0F0F0"></path><path d="M338.145 243.801H335.312V246.634H338.145V243.801Z" fill="#F0F0F0"></path><path d="M338.145 248.551H335.312V251.384H338.145V248.551Z" fill="#F0F0F0"></path><path d="M333.645 144.051H330.812V146.884H333.645V144.051Z" fill="#F0F0F0"></path><path d="M333.645 148.801H330.812V151.634H333.645V148.801Z" fill="#F0F0F0"></path><path d="M333.645 153.551H330.812V156.384H333.645V153.551Z" fill="#F0F0F0"></path><path d="M333.645 158.301H330.812V161.134H333.645V158.301Z" fill="#F0F0F0"></path><path d="M333.645 163.051H330.812V165.884H333.645V163.051Z" fill="#F0F0F0"></path><path d="M333.645 167.801H330.812V170.634H333.645V167.801Z" fill="#F0F0F0"></path><path d="M333.645 172.551H330.812V175.384H333.645V172.551Z" fill="#F0F0F0"></path><path d="M333.645 177.301H330.812V180.134H333.645V177.301Z" fill="#F0F0F0"></path><path d="M333.645 182.051H330.812V184.884H333.645V182.051Z" fill="#F0F0F0"></path><path d="M333.645 186.801H330.812V189.634H333.645V186.801Z" fill="#F0F0F0"></path><path d="M333.645 191.551H330.812V194.384H333.645V191.551Z" fill="#F0F0F0"></path><path d="M333.645 196.301H330.812V199.134H333.645V196.301Z" fill="#F0F0F0"></path><path d="M333.645 201.051H330.812V203.884H333.645V201.051Z" fill="#F0F0F0"></path><path d="M333.645 205.801H330.812V208.634H333.645V205.801Z" fill="#F0F0F0"></path><path d="M333.645 210.551H330.812V213.384H333.645V210.551Z" fill="#F0F0F0"></path><path d="M333.645 215.301H330.812V218.134H333.645V215.301Z" fill="#F0F0F0"></path><path d="M333.645 224.801H330.812V227.634H333.645V224.801Z" fill="#F0F0F0"></path><path d="M333.645 229.551H330.812V232.384H333.645V229.551Z" fill="#F0F0F0"></path><path d="M333.645 234.301H330.812V237.134H333.645V234.301Z" fill="#F0F0F0"></path><path d="M333.645 239.051H330.812V241.884H333.645V239.051Z" fill="#F0F0F0"></path><path d="M333.645 248.551H330.812V251.384H333.645V248.551Z" fill="#F0F0F0"></path><path d="M358.978 203.883H356.145V206.716H358.978V203.883Z" fill="#F0F0F0"></path><path d="M358.978 208.633H356.145V211.466H358.978V208.633Z" fill="#F0F0F0"></path><path d="M358.978 213.383H356.145V216.216H358.978V213.383Z" fill="#F0F0F0"></path><path d="M358.978 218.133H356.145V220.966H358.978V218.133Z" fill="#F0F0F0"></path><path d="M358.978 222.883H356.145V225.716H358.978V222.883Z" fill="#F0F0F0"></path><path d="M358.978 227.633H356.145V230.466H358.978V227.633Z" fill="#F0F0F0"></path><path d="M358.978 232.383H356.145V235.216H358.978V232.383Z" fill="#F0F0F0"></path><path d="M358.978 241.883H356.145V244.716H358.978V241.883Z" fill="#F0F0F0"></path><path d="M358.978 246.633H356.145V249.466H358.978V246.633Z" fill="#F0F0F0"></path><path d="M358.978 251.383H356.145V254.216H358.978V251.383Z" fill="#F0F0F0"></path><path d="M358.978 256.133H356.145V258.966H358.978V256.133Z" fill="#F0F0F0"></path><path d="M358.978 260.883H356.145V263.716H358.978V260.883Z" fill="#F0F0F0"></path><path d="M358.978 265.633H356.145V268.466H358.978V265.633Z" fill="#F0F0F0"></path><path d="M358.978 270.383H356.145V273.216H358.978V270.383Z" fill="#F0F0F0"></path><path d="M358.978 275.133H356.145V277.966H358.978V275.133Z" fill="#F0F0F0"></path><path d="M354.478 203.883H351.645V206.716H354.478V203.883Z" fill="#F0F0F0"></path><path d="M354.478 208.633H351.645V211.466H354.478V208.633Z" fill="#F0F0F0"></path><path d="M354.478 213.383H351.645V216.216H354.478V213.383Z" fill="#F0F0F0"></path><path d="M354.478 218.133H351.645V220.966H354.478V218.133Z" fill="#F0F0F0"></path><path d="M354.478 222.883H351.645V225.716H354.478V222.883Z" fill="#F0F0F0"></path><path d="M354.478 227.633H351.645V230.466H354.478V227.633Z" fill="#F0F0F0"></path><path d="M354.478 241.883H351.645V244.716H354.478V241.883Z" fill="#F0F0F0"></path><path d="M354.478 246.633H351.645V249.466H354.478V246.633Z" fill="#F0F0F0"></path><path d="M354.478 251.383H351.645V254.216H354.478V251.383Z" fill="#F0F0F0"></path><path d="M354.478 256.133H351.645V258.966H354.478V256.133Z" fill="#F0F0F0"></path><path d="M354.478 260.883H351.645V263.716H354.478V260.883Z" fill="#F0F0F0"></path><path d="M354.478 265.633H351.645V268.466H354.478V265.633Z" fill="#F0F0F0"></path><path d="M354.478 270.383H351.645V273.216H354.478V270.383Z" fill="#F0F0F0"></path><path d="M354.478 275.133H351.645V277.966H354.478V275.133Z" fill="#F0F0F0"></path><path d="M349.978 203.883H347.145V206.716H349.978V203.883Z" fill="#F0F0F0"></path><path d="M349.978 208.633H347.145V211.466H349.978V208.633Z" fill="#F0F0F0"></path><path d="M349.978 213.383H347.145V216.216H349.978V213.383Z" fill="#F0F0F0"></path><path d="M349.978 218.133H347.145V220.966H349.978V218.133Z" fill="#F0F0F0"></path><path d="M349.978 222.883H347.145V225.716H349.978V222.883Z" fill="#F0F0F0"></path><path d="M349.978 227.633H347.145V230.466H349.978V227.633Z" fill="#F0F0F0"></path><path d="M349.978 237.133H347.145V239.966H349.978V237.133Z" fill="#F0F0F0"></path><path d="M349.978 241.883H347.145V244.716H349.978V241.883Z" fill="#F0F0F0"></path><path d="M349.978 246.633H347.145V249.466H349.978V246.633Z" fill="#F0F0F0"></path><path d="M349.978 251.383H347.145V254.216H349.978V251.383Z" fill="#F0F0F0"></path><path d="M349.978 256.133H347.145V258.966H349.978V256.133Z" fill="#F0F0F0"></path><path d="M349.978 260.883H347.145V263.716H349.978V260.883Z" fill="#F0F0F0"></path><path d="M349.978 265.633H347.145V268.466H349.978V265.633Z" fill="#F0F0F0"></path><path d="M349.978 270.383H347.145V273.216H349.978V270.383Z" fill="#F0F0F0"></path><path d="M349.978 275.133H347.145V277.966H349.978V275.133Z" fill="#F0F0F0"></path><path d="M255.146 177.301H252.312V180.134H255.146V177.301Z" fill="#F0F0F0"></path><path d="M255.146 182.051H252.312V184.884H255.146V182.051Z" fill="#F0F0F0"></path><path d="M255.146 186.801H252.312V189.634H255.146V186.801Z" fill="#F0F0F0"></path><path d="M255.146 191.551H252.312V194.384H255.146V191.551Z" fill="#F0F0F0"></path><path d="M255.146 196.301H252.312V199.134H255.146V196.301Z" fill="#F0F0F0"></path><path d="M255.146 201.051H252.312V203.884H255.146V201.051Z" fill="#F0F0F0"></path><path d="M255.146 205.801H252.312V208.634H255.146V205.801Z" fill="#F0F0F0"></path><path d="M255.146 210.551H252.312V213.384H255.146V210.551Z" fill="#F0F0F0"></path><path d="M255.146 215.301H252.312V218.134H255.146V215.301Z" fill="#F0F0F0"></path><path d="M255.146 220.051H252.312V222.884H255.146V220.051Z" fill="#F0F0F0"></path><path d="M255.146 224.801H252.312V227.634H255.146V224.801Z" fill="#F0F0F0"></path><path d="M255.146 229.551H252.312V232.384H255.146V229.551Z" fill="#F0F0F0"></path><path d="M255.146 234.301H252.312V237.134H255.146V234.301Z" fill="#F0F0F0"></path><path d="M255.146 243.801H252.312V246.634H255.146V243.801Z" fill="#F0F0F0"></path><path d="M255.146 248.551H252.312V251.384H255.146V248.551Z" fill="#F0F0F0"></path><path d="M255.146 253.301H252.312V256.134H255.146V253.301Z" fill="#F0F0F0"></path><path d="M255.146 258.051H252.312V260.884H255.146V258.051Z" fill="#F0F0F0"></path><path d="M255.146 267.551H252.312V270.384H255.146V267.551Z" fill="#F0F0F0"></path><path d="M255.146 272.301H252.312V275.134H255.146V272.301Z" fill="#F0F0F0"></path><path d="M255.146 277.051H252.312V279.884H255.146V277.051Z" fill="#F0F0F0"></path><path d="M250.646 177.301H247.812V180.134H250.646V177.301Z" fill="#F0F0F0"></path><path d="M250.646 182.051H247.812V184.884H250.646V182.051Z" fill="#F0F0F0"></path><path d="M250.646 186.801H247.812V189.634H250.646V186.801Z" fill="#F0F0F0"></path><path d="M250.646 191.551H247.812V194.384H250.646V191.551Z" fill="#F0F0F0"></path><path d="M250.646 196.301H247.812V199.134H250.646V196.301Z" fill="#F0F0F0"></path><path d="M250.646 201.051H247.812V203.884H250.646V201.051Z" fill="#F0F0F0"></path><path d="M250.646 205.801H247.812V208.634H250.646V205.801Z" fill="#F0F0F0"></path><path d="M250.646 210.551H247.812V213.384H250.646V210.551Z" fill="#F0F0F0"></path><path d="M250.646 215.301H247.812V218.134H250.646V215.301Z" fill="#F0F0F0"></path><path d="M250.646 220.051H247.812V222.884H250.646V220.051Z" fill="#F0F0F0"></path><path d="M250.646 224.801H247.812V227.634H250.646V224.801Z" fill="#F0F0F0"></path><path d="M250.646 229.551H247.812V232.384H250.646V229.551Z" fill="#F0F0F0"></path><path d="M250.646 234.301H247.812V237.134H250.646V234.301Z" fill="#F0F0F0"></path><path d="M250.646 248.551H247.812V251.384H250.646V248.551Z" fill="#F0F0F0"></path><path d="M250.646 253.301H247.812V256.134H250.646V253.301Z" fill="#F0F0F0"></path><path d="M250.646 262.801H247.812V265.634H250.646V262.801Z" fill="#F0F0F0"></path><path d="M250.646 267.551H247.812V270.384H250.646V267.551Z" fill="#F0F0F0"></path><path d="M250.646 272.301H247.812V275.134H250.646V272.301Z" fill="#F0F0F0"></path><path d="M250.646 277.051H247.812V279.884H250.646V277.051Z" fill="#F0F0F0"></path><path d="M246.146 177.301H243.312V180.134H246.146V177.301Z" fill="#F0F0F0"></path><path d="M246.146 182.051H243.312V184.884H246.146V182.051Z" fill="#F0F0F0"></path><path d="M246.146 186.801H243.312V189.634H246.146V186.801Z" fill="#F0F0F0"></path><path d="M246.146 191.551H243.312V194.384H246.146V191.551Z" fill="#F0F0F0"></path><path d="M246.146 196.301H243.312V199.134H246.146V196.301Z" fill="#F0F0F0"></path><path d="M246.146 201.051H243.312V203.884H246.146V201.051Z" fill="#F0F0F0"></path><path d="M246.146 205.801H243.312V208.634H246.146V205.801Z" fill="#F0F0F0"></path><path d="M246.146 210.551H243.312V213.384H246.146V210.551Z" fill="#F0F0F0"></path><path d="M246.146 215.301H243.312V218.134H246.146V215.301Z" fill="#F0F0F0"></path><path d="M246.146 220.051H243.312V222.884H246.146V220.051Z" fill="#F0F0F0"></path><path d="M246.146 224.801H243.312V227.634H246.146V224.801Z" fill="#F0F0F0"></path><path d="M246.146 229.551H243.312V232.384H246.146V229.551Z" fill="#F0F0F0"></path><path d="M246.146 234.301H243.312V237.134H246.146V234.301Z" fill="#F0F0F0"></path><path d="M246.146 239.051H243.312V241.884H246.146V239.051Z" fill="#F0F0F0"></path><path d="M246.146 248.551H243.312V251.384H246.146V248.551Z" fill="#F0F0F0"></path><path d="M246.146 258.051H243.312V260.884H246.146V258.051Z" fill="#F0F0F0"></path><path d="M246.146 262.801H243.312V265.634H246.146V262.801Z" fill="#F0F0F0"></path><path d="M246.146 267.551H243.312V270.384H246.146V267.551Z" fill="#F0F0F0"></path><path d="M246.146 272.301H243.312V275.134H246.146V272.301Z" fill="#F0F0F0"></path><path d="M246.146 277.051H243.312V279.884H246.146V277.051Z" fill="#F0F0F0"></path><path d="M273.478 204.383H270.645V207.216H273.478V204.383Z" fill="#F0F0F0"></path><path d="M273.478 209.133H270.645V211.966H273.478V209.133Z" fill="#F0F0F0"></path><path d="M273.478 213.883H270.645V216.716H273.478V213.883Z" fill="#F0F0F0"></path><path d="M273.478 218.633H270.645V221.466H273.478V218.633Z" fill="#F0F0F0"></path><path d="M273.478 223.383H270.645V226.216H273.478V223.383Z" fill="#F0F0F0"></path><path d="M273.478 228.133H270.645V230.966H273.478V228.133Z" fill="#F0F0F0"></path><path d="M273.478 242.383H270.645V245.216H273.478V242.383Z" fill="#F0F0F0"></path><path d="M273.478 247.133H270.645V249.966H273.478V247.133Z" fill="#F0F0F0"></path><path d="M273.478 251.883H270.645V254.716H273.478V251.883Z" fill="#F0F0F0"></path><path d="M273.478 256.633H270.645V259.466H273.478V256.633Z" fill="#F0F0F0"></path><path d="M273.478 261.383H270.645V264.216H273.478V261.383Z" fill="#F0F0F0"></path><path d="M273.478 266.133H270.645V268.966H273.478V266.133Z" fill="#F0F0F0"></path><path d="M273.478 270.883H270.645V273.716H273.478V270.883Z" fill="#F0F0F0"></path><path d="M268.978 204.383H266.145V207.216H268.978V204.383Z" fill="#F0F0F0"></path><path d="M268.978 209.133H266.145V211.966H268.978V209.133Z" fill="#F0F0F0"></path><path d="M268.978 213.883H266.145V216.716H268.978V213.883Z" fill="#F0F0F0"></path><path d="M268.978 218.633H266.145V221.466H268.978V218.633Z" fill="#F0F0F0"></path><path d="M268.978 223.383H266.145V226.216H268.978V223.383Z" fill="#F0F0F0"></path><path d="M268.978 228.133H266.145V230.966H268.978V228.133Z" fill="#F0F0F0"></path><path d="M268.978 242.383H266.145V245.216H268.978V242.383Z" fill="#F0F0F0"></path><path d="M268.978 247.133H266.145V249.966H268.978V247.133Z" fill="#F0F0F0"></path><path d="M268.978 251.883H266.145V254.716H268.978V251.883Z" fill="#F0F0F0"></path><path d="M268.978 256.633H266.145V259.466H268.978V256.633Z" fill="#F0F0F0"></path><path d="M268.978 261.383H266.145V264.216H268.978V261.383Z" fill="#F0F0F0"></path><path d="M268.978 266.133H266.145V268.966H268.978V266.133Z" fill="#F0F0F0"></path><path d="M268.978 275.633H266.145V278.466H268.978V275.633Z" fill="#F0F0F0"></path><path d="M119.478 183.469H116.645V186.302H119.478V183.469Z" fill="#F0F0F0"></path><path d="M119.478 188.219H116.645V191.052H119.478V188.219Z" fill="#F0F0F0"></path><path d="M119.478 192.969H116.645V195.802H119.478V192.969Z" fill="#F0F0F0"></path><path d="M119.478 197.719H116.645V200.552H119.478V197.719Z" fill="#F0F0F0"></path><path d="M119.478 202.469H116.645V205.302H119.478V202.469Z" fill="#F0F0F0"></path><path d="M119.478 207.219H116.645V210.052H119.478V207.219Z" fill="#F0F0F0"></path><path d="M119.478 211.969H116.645V214.802H119.478V211.969Z" fill="#F0F0F0"></path><path d="M119.478 216.719H116.645V219.552H119.478V216.719Z" fill="#F0F0F0"></path><path d="M119.478 221.469H116.645V224.302H119.478V221.469Z" fill="#F0F0F0"></path><path d="M119.478 226.219H116.645V229.052H119.478V226.219Z" fill="#F0F0F0"></path><path d="M119.478 230.969H116.645V233.802H119.478V230.969Z" fill="#F0F0F0"></path><path d="M119.478 240.469H116.645V243.302H119.478V240.469Z" fill="#F0F0F0"></path><path d="M119.478 245.219H116.645V248.052H119.478V245.219Z" fill="#F0F0F0"></path><path d="M119.478 249.969H116.645V252.802H119.478V249.969Z" fill="#F0F0F0"></path><path d="M119.478 254.719H116.645V257.552H119.478V254.719Z" fill="#F0F0F0"></path><path d="M119.478 259.469H116.645V262.302H119.478V259.469Z" fill="#F0F0F0"></path><path d="M119.478 264.219H116.645V267.052H119.478V264.219Z" fill="#F0F0F0"></path><path d="M119.478 268.969H116.645V271.802H119.478V268.969Z" fill="#F0F0F0"></path><path d="M119.478 273.719H116.645V276.552H119.478V273.719Z" fill="#F0F0F0"></path><path d="M114.978 183.469H112.145V186.302H114.978V183.469Z" fill="#F0F0F0"></path><path d="M114.978 188.219H112.145V191.052H114.978V188.219Z" fill="#F0F0F0"></path><path d="M114.978 192.969H112.145V195.802H114.978V192.969Z" fill="#F0F0F0"></path><path d="M114.978 197.719H112.145V200.552H114.978V197.719Z" fill="#F0F0F0"></path><path d="M114.978 202.469H112.145V205.302H114.978V202.469Z" fill="#F0F0F0"></path><path d="M114.978 207.219H112.145V210.052H114.978V207.219Z" fill="#F0F0F0"></path><path d="M114.978 211.969H112.145V214.802H114.978V211.969Z" fill="#F0F0F0"></path><path d="M114.978 216.719H112.145V219.552H114.978V216.719Z" fill="#F0F0F0"></path><path d="M114.978 221.469H112.145V224.302H114.978V221.469Z" fill="#F0F0F0"></path><path d="M114.978 226.219H112.145V229.052H114.978V226.219Z" fill="#F0F0F0"></path><path d="M114.978 230.969H112.145V233.802H114.978V230.969Z" fill="#F0F0F0"></path><path d="M114.978 235.719H112.145V238.552H114.978V235.719Z" fill="#F0F0F0"></path><path d="M114.978 240.469H112.145V243.302H114.978V240.469Z" fill="#F0F0F0"></path><path d="M114.978 245.219H112.145V248.052H114.978V245.219Z" fill="#F0F0F0"></path><path d="M114.978 249.969H112.145V252.802H114.978V249.969Z" fill="#F0F0F0"></path><path d="M114.978 254.719H112.145V257.552H114.978V254.719Z" fill="#F0F0F0"></path><path d="M114.978 259.469H112.145V262.302H114.978V259.469Z" fill="#F0F0F0"></path><path d="M114.978 264.219H112.145V267.052H114.978V264.219Z" fill="#F0F0F0"></path><path d="M114.978 268.969H112.145V271.802H114.978V268.969Z" fill="#F0F0F0"></path><path d="M114.978 273.719H112.145V276.552H114.978V273.719Z" fill="#F0F0F0"></path><path d="M141.646 201.969H138.812V204.802H141.646V201.969Z" fill="#F0F0F0"></path><path d="M141.646 206.719H138.812V209.552H141.646V206.719Z" fill="#F0F0F0"></path><path d="M141.646 211.469H138.812V214.302H141.646V211.469Z" fill="#F0F0F0"></path><path d="M141.646 216.219H138.812V219.052H141.646V216.219Z" fill="#F0F0F0"></path><path d="M141.646 220.969H138.812V223.802H141.646V220.969Z" fill="#F0F0F0"></path><path d="M141.646 225.719H138.812V228.552H141.646V225.719Z" fill="#F0F0F0"></path><path d="M141.646 230.469H138.812V233.302H141.646V230.469Z" fill="#F0F0F0"></path><path d="M141.646 235.219H138.812V238.052H141.646V235.219Z" fill="#F0F0F0"></path><path d="M141.646 239.969H138.812V242.802H141.646V239.969Z" fill="#F0F0F0"></path><path d="M141.646 244.719H138.812V247.552H141.646V244.719Z" fill="#F0F0F0"></path><path d="M137.146 201.969H134.312V204.802H137.146V201.969Z" fill="#F0F0F0"></path><path d="M137.146 206.719H134.312V209.552H137.146V206.719Z" fill="#F0F0F0"></path><path d="M137.146 211.469H134.312V214.302H137.146V211.469Z" fill="#F0F0F0"></path><path d="M137.146 216.219H134.312V219.052H137.146V216.219Z" fill="#F0F0F0"></path><path d="M137.146 220.969H134.312V223.802H137.146V220.969Z" fill="#F0F0F0"></path><path d="M137.146 225.719H134.312V228.552H137.146V225.719Z" fill="#F0F0F0"></path><path d="M137.146 230.469H134.312V233.302H137.146V230.469Z" fill="#F0F0F0"></path><path d="M137.146 235.219H134.312V238.052H137.146V235.219Z" fill="#F0F0F0"></path><path d="M137.146 239.969H134.312V242.802H137.146V239.969Z" fill="#F0F0F0"></path><path d="M341.834 21.7051H337.078V288.27H341.834V21.7051Z" fill="#E0E0E0"></path><path d="M252.377 21.7051H247.621V288.27H252.377V21.7051Z" fill="#E0E0E0"></path><path d="M162.92 21.7051H158.164V288.27H162.92V21.7051Z" fill="#E0E0E0"></path><path d="M250 373.56C357.082 373.56 443.889 368.491 443.889 362.237C443.889 355.984 357.082 350.914 250 350.914C142.918 350.914 56.1113 355.984 56.1113 362.237C56.1113 368.491 142.918 373.56 250 373.56Z" fill="#F5F5F5"></path><path d="M308.867 214.664H137.95C136.546 214.664 135.408 213.526 135.408 212.122V76.3682C135.408 74.9642 136.546 73.8262 137.95 73.8262H308.867C310.271 73.8262 311.409 74.9642 311.409 76.3682V212.122C311.408 213.526 310.27 214.664 308.867 214.664Z" fill="#263238"></path><g opacity="0.2"><path d="M296 196H158V197H296V196Z" fill="white"></path><path d="M296 191H158V192H296V191Z" fill="white"></path><path d="M296 186H158V187H296V186Z" fill="white"></path><path d="M296 181H158V182H296V181Z" fill="white"></path><path d="M296 176H158V177H296V176Z" fill="white"></path><path d="M296 171H158V172H296V171Z" fill="white"></path><path d="M296 166H158V167H296V166Z" fill="white"></path><path d="M296 161H158V162H296V161Z" fill="white"></path><path d="M296 156H158V157H296V156Z" fill="white"></path><path d="M296 151H158V152H296V151Z" fill="white"></path><path d="M296 146H158V147H296V146Z" fill="white"></path><path d="M296 141H158V142H296V141Z" fill="white"></path><path d="M296 136H158V137H296V136Z" fill="white"></path><path d="M296 131H158V132H296V131Z" fill="white"></path><path d="M296 126H158V127H296V126Z" fill="white"></path><path d="M296 121H158V122H296V121Z" fill="white"></path><path d="M296 116H158V117H296V116Z" fill="white"></path><path d="M296 111H158V112H296V111Z" fill="white"></path><path d="M296 106H158V107H296V106Z" fill="white"></path><path d="M296 101H158V102H296V101Z" fill="white"></path></g><path d="M171.007 187.016H162.674V196.997H171.007V187.016Z" fill="#407BFF"></path><path d="M186.007 156.996H177.674V196.996H186.007V156.996Z" fill="#407BFF"></path><path d="M201.007 136.984H192.674V196.997H201.007V136.984Z" fill="#407BFF"></path><path d="M216.007 142.988H207.674V196.997H216.007V142.988Z" fill="#407BFF"></path><path d="M231.007 156.996H222.674V196.996H231.007V156.996Z" fill="#407BFF"></path><path d="M246.007 136.984H237.674V196.997H246.007V136.984Z" fill="#407BFF"></path><path d="M261.007 116.973H252.674V196.998H261.007V116.973Z" fill="#407BFF"></path><path d="M276.007 111.969H267.674V196.997H276.007V111.969Z" fill="#407BFF"></path><path d="M291.007 156.996H282.674V196.996H291.007V156.996Z" fill="#407BFF"></path><g opacity="0.6"><path d="M171.007 190.656H162.674V196.996H171.007V190.656Z" fill="white"></path><path d="M186.007 171.59H177.674V196.997H186.007V171.59Z" fill="white"></path><path d="M201.007 158.877H192.674V196.996H201.007V158.877Z" fill="white"></path><path d="M216.007 162.691H207.674V196.997H216.007V162.691Z" fill="white"></path><path d="M231.007 171.59H222.674V196.997H231.007V171.59Z" fill="white"></path><path d="M246.007 158.877H237.674V196.996H246.007V158.877Z" fill="white"></path><path d="M261.007 146.166H252.674V196.997H261.007V146.166Z" fill="white"></path><path d="M276.007 142.988H267.674V196.997H276.007V142.988Z" fill="white"></path><path d="M291.007 171.59H282.674V196.997H291.007V171.59Z" fill="white"></path></g><path d="M171.007 191.881H162.674V196.997H171.007V191.881Z" fill="white"></path><path d="M186.007 176.492H177.674V196.996H186.007V176.492Z" fill="white"></path><path d="M201.007 166.234H192.674V196.996H201.007V166.234Z" fill="white"></path><path d="M216.007 169.312H207.674V196.997H216.007V169.312Z" fill="white"></path><path d="M231.007 176.492H222.674V196.996H231.007V176.492Z" fill="white"></path><path d="M246.007 166.234H237.674V196.996H246.007V166.234Z" fill="white"></path><path d="M261.007 155.977H252.674V196.998H261.007V155.977Z" fill="white"></path><path d="M276.007 153.412H267.674V196.997H276.007V153.412Z" fill="white"></path><path d="M291.007 176.492H282.674V196.996H291.007V176.492Z" fill="white"></path><g opacity="0.2"><path d="M152.07 194.439H154.512C155.218 194.439 155.791 195.012 155.791 195.718C155.791 196.424 155.218 196.997 154.512 196.997H152.07C151.364 196.997 150.791 196.424 150.791 195.718C150.79 195.012 151.363 194.439 152.07 194.439Z" fill="white"></path><path d="M152.07 189.439H154.512C155.218 189.439 155.791 190.012 155.791 190.718C155.791 191.424 155.218 191.997 154.512 191.997H152.07C151.364 191.997 150.791 191.424 150.791 190.718C150.79 190.012 151.363 189.439 152.07 189.439Z" fill="white"></path><path d="M152.07 184.439H154.512C155.218 184.439 155.791 185.012 155.791 185.718C155.791 186.424 155.218 186.997 154.512 186.997H152.07C151.364 186.997 150.791 186.424 150.791 185.718C150.79 185.012 151.363 184.439 152.07 184.439Z" fill="white"></path><path d="M152.07 179.439H154.512C155.218 179.439 155.791 180.012 155.791 180.718C155.791 181.424 155.218 181.997 154.512 181.997H152.07C151.364 181.997 150.791 181.424 150.791 180.718C150.79 180.012 151.363 179.439 152.07 179.439Z" fill="white"></path><path d="M152.07 174.439H154.512C155.218 174.439 155.791 175.012 155.791 175.718C155.791 176.424 155.218 176.997 154.512 176.997H152.07C151.364 176.997 150.791 176.424 150.791 175.718C150.79 175.012 151.363 174.439 152.07 174.439Z" fill="white"></path><path d="M152.07 169.439H154.512C155.218 169.439 155.791 170.012 155.791 170.718C155.791 171.424 155.218 171.997 154.512 171.997H152.07C151.364 171.997 150.791 171.424 150.791 170.718C150.79 170.012 151.363 169.439 152.07 169.439Z" fill="white"></path><path d="M152.07 164.439H154.512C155.218 164.439 155.791 165.012 155.791 165.718C155.791 166.424 155.218 166.997 154.512 166.997H152.07C151.364 166.997 150.791 166.424 150.791 165.718C150.79 165.012 151.363 164.439 152.07 164.439Z" fill="white"></path><path d="M152.07 159.439H154.512C155.218 159.439 155.791 160.012 155.791 160.718C155.791 161.424 155.218 161.997 154.512 161.997H152.07C151.364 161.997 150.791 161.424 150.791 160.718C150.79 160.012 151.363 159.439 152.07 159.439Z" fill="white"></path><path d="M152.07 154.439H154.512C155.218 154.439 155.791 155.012 155.791 155.718C155.791 156.424 155.218 156.997 154.512 156.997H152.07C151.364 156.997 150.791 156.424 150.791 155.718C150.79 155.012 151.363 154.439 152.07 154.439Z" fill="white"></path><path d="M152.07 149.439H154.512C155.218 149.439 155.791 150.012 155.791 150.718C155.791 151.424 155.218 151.997 154.512 151.997H152.07C151.364 151.997 150.791 151.424 150.791 150.718C150.79 150.012 151.363 149.439 152.07 149.439Z" fill="white"></path><path d="M152.07 144.439H154.512C155.218 144.439 155.791 145.012 155.791 145.718C155.791 146.424 155.218 146.997 154.512 146.997H152.07C151.364 146.997 150.791 146.424 150.791 145.718C150.79 145.012 151.363 144.439 152.07 144.439Z" fill="white"></path><path d="M152.07 139.439H154.512C155.218 139.439 155.791 140.012 155.791 140.718C155.791 141.424 155.218 141.997 154.512 141.997H152.07C151.364 141.997 150.791 141.424 150.791 140.718C150.79 140.012 151.363 139.439 152.07 139.439Z" fill="white"></path><path d="M152.07 134.439H154.512C155.218 134.439 155.791 135.012 155.791 135.718C155.791 136.424 155.218 136.997 154.512 136.997H152.07C151.364 136.997 150.791 136.424 150.791 135.718C150.79 135.012 151.363 134.439 152.07 134.439Z" fill="white"></path><path d="M152.07 129.439H154.512C155.218 129.439 155.791 130.012 155.791 130.718C155.791 131.424 155.218 131.997 154.512 131.997H152.07C151.364 131.997 150.791 131.424 150.791 130.718C150.79 130.012 151.363 129.439 152.07 129.439Z" fill="white"></path><path d="M152.07 124.439H154.512C155.218 124.439 155.791 125.012 155.791 125.718C155.791 126.424 155.218 126.997 154.512 126.997H152.07C151.364 126.997 150.791 126.424 150.791 125.718C150.79 125.012 151.363 124.439 152.07 124.439Z" fill="white"></path><path d="M152.07 119.439H154.512C155.218 119.439 155.791 120.012 155.791 120.718C155.791 121.424 155.218 121.997 154.512 121.997H152.07C151.364 121.997 150.791 121.424 150.791 120.718C150.79 120.012 151.363 119.439 152.07 119.439Z" fill="white"></path><path d="M152.07 114.439H154.512C155.218 114.439 155.791 115.012 155.791 115.718C155.791 116.424 155.218 116.997 154.512 116.997H152.07C151.364 116.997 150.791 116.424 150.791 115.718C150.79 115.012 151.363 114.439 152.07 114.439Z" fill="white"></path><path d="M152.07 109.439H154.512C155.218 109.439 155.791 110.012 155.791 110.718C155.791 111.424 155.218 111.997 154.512 111.997H152.07C151.364 111.997 150.791 111.424 150.791 110.718C150.79 110.012 151.363 109.439 152.07 109.439Z" fill="white"></path><path d="M152.07 104.439H154.512C155.218 104.439 155.791 105.012 155.791 105.718C155.791 106.424 155.218 106.997 154.512 106.997H152.07C151.364 106.997 150.791 106.424 150.791 105.718C150.79 105.012 151.363 104.439 152.07 104.439Z" fill="white"></path><path d="M152.07 99.4395H154.512C155.218 99.4395 155.791 100.012 155.791 100.718C155.791 101.424 155.218 101.997 154.512 101.997H152.07C151.364 101.997 150.791 101.424 150.791 100.718C150.79 100.012 151.363 99.4395 152.07 99.4395Z" fill="white"></path></g><path d="M165.621 199.5H168.063C168.769 199.5 169.342 200.073 169.342 200.779C169.342 201.485 168.769 202.058 168.063 202.058H165.621C164.915 202.058 164.342 201.485 164.342 200.779C164.342 200.073 164.914 199.5 165.621 199.5Z" fill="white"></path><path d="M180.621 199.5H183.063C183.769 199.5 184.342 200.073 184.342 200.779C184.342 201.485 183.769 202.058 183.063 202.058H180.621C179.915 202.058 179.342 201.485 179.342 200.779C179.342 200.073 179.914 199.5 180.621 199.5Z" fill="white"></path><path d="M195.621 199.5H198.063C198.769 199.5 199.342 200.073 199.342 200.779C199.342 201.485 198.769 202.058 198.063 202.058H195.621C194.915 202.058 194.342 201.485 194.342 200.779C194.342 200.073 194.914 199.5 195.621 199.5Z" fill="white"></path><path d="M210.621 199.5H213.063C213.769 199.5 214.342 200.073 214.342 200.779C214.342 201.485 213.769 202.058 213.063 202.058H210.621C209.915 202.058 209.342 201.485 209.342 200.779C209.342 200.073 209.914 199.5 210.621 199.5Z" fill="white"></path><path d="M225.621 199.5H228.063C228.769 199.5 229.342 200.073 229.342 200.779C229.342 201.485 228.769 202.058 228.063 202.058H225.621C224.915 202.058 224.342 201.485 224.342 200.779C224.342 200.073 224.914 199.5 225.621 199.5Z" fill="white"></path><path d="M240.621 199.5H243.063C243.769 199.5 244.342 200.073 244.342 200.779C244.342 201.485 243.769 202.058 243.063 202.058H240.621C239.915 202.058 239.342 201.485 239.342 200.779C239.342 200.073 239.914 199.5 240.621 199.5Z" fill="white"></path><path d="M255.621 199.5H258.063C258.769 199.5 259.342 200.073 259.342 200.779C259.342 201.485 258.769 202.058 258.063 202.058H255.621C254.915 202.058 254.342 201.485 254.342 200.779C254.342 200.073 254.914 199.5 255.621 199.5Z" fill="white"></path><path d="M270.621 199.5H273.063C273.769 199.5 274.342 200.073 274.342 200.779C274.342 201.485 273.769 202.058 273.063 202.058H270.621C269.914 202.058 269.342 201.485 269.342 200.779C269.342 200.073 269.914 199.5 270.621 199.5Z" fill="white"></path><path d="M285.621 199.5H288.063C288.769 199.5 289.342 200.073 289.342 200.779C289.342 201.485 288.769 202.058 288.063 202.058H285.621C284.914 202.058 284.342 201.485 284.342 200.779C284.342 200.073 284.914 199.5 285.621 199.5Z" fill="white"></path><path opacity="0.2" d="M263.022 88.0595H183.793C182.608 88.0595 181.648 87.0995 181.648 85.9145C181.648 84.7295 182.608 83.7695 183.793 83.7695H263.022C264.207 83.7695 265.167 84.7295 265.167 85.9145C265.167 87.0995 264.206 88.0595 263.022 88.0595Z" fill="white"></path><g opacity="0.2"><path d="M259.583 99H311V76.368C311 74.964 310.271 74 308.867 74H257V96.017C257 97.421 258.179 99 259.583 99Z" fill="black"></path><path d="M311 212.122V197H249.901C248.497 197 247 198.211 247 199.615V215H308.867C310.271 215 311 213.526 311 212.122Z" fill="black"></path></g><path d="M351.273 298.2H261.407C260.003 298.2 258.865 297.062 258.865 295.658V209.935C258.865 208.531 260.003 207.393 261.407 207.393H351.273C352.677 207.393 353.815 208.531 353.815 209.935V295.658C353.815 297.062 352.677 298.2 351.273 298.2Z" fill="#263238"></path><path d="M298.095 287.729C312.501 287.729 324.18 276.05 324.18 261.644C324.18 247.237 312.501 235.559 298.095 235.559C283.688 235.559 272.01 247.237 272.01 261.644C272.01 276.05 283.688 287.729 298.095 287.729Z" fill="#407BFF"></path><path opacity="0.2" d="M298.095 261.644L318.917 245.931C322.332 250.457 324.18 255.974 324.18 261.644C324.18 275.954 312.405 287.729 298.095 287.729C283.785 287.729 272.01 275.954 272.01 261.644C272.01 250.578 279.052 240.662 289.5 237.016L298.095 261.644Z" fill="white"></path><path d="M298.095 261.644L318.308 245.156C322.105 249.811 324.18 255.637 324.18 261.644C324.18 275.954 312.405 287.729 298.095 287.729C283.785 287.729 272.01 275.954 272.01 261.644C272.01 256.135 273.756 250.764 276.995 246.308L298.095 261.644Z" fill="white"></path><path d="M339.323 248.826H333.666C332.921 248.826 332.318 248.222 332.318 247.478V241.821C332.318 241.076 332.922 240.473 333.666 240.473H339.323C340.068 240.473 340.671 241.077 340.671 241.821V247.478C340.671 248.222 340.068 248.826 339.323 248.826Z" fill="#407BFF"></path><path d="M339.323 265.015H333.666C332.921 265.015 332.318 264.411 332.318 263.667V258.01C332.318 257.265 332.922 256.662 333.666 256.662H339.323C340.068 256.662 340.671 257.266 340.671 258.01V263.667C340.671 264.411 340.068 265.015 339.323 265.015Z" fill="#407BFF"></path><path d="M339.323 281.205H333.666C332.921 281.205 332.318 280.601 332.318 279.857V274.2C332.318 273.455 332.922 272.852 333.666 272.852H339.323C340.068 272.852 340.671 273.456 340.671 274.2V279.857C340.671 280.601 340.068 281.205 339.323 281.205Z" fill="white"></path><path opacity="0.2" d="M339.323 265.015H333.666C332.921 265.015 332.318 264.411 332.318 263.667V258.01C332.318 257.265 332.922 256.662 333.666 256.662H339.323C340.068 256.662 340.671 257.266 340.671 258.01V263.667C340.671 264.411 340.068 265.015 339.323 265.015Z" fill="white"></path><path opacity="0.2" d="M337.451 222.31H275.233C274.048 222.31 273.088 221.35 273.088 220.165C273.088 218.98 274.048 218.02 275.233 218.02H337.451C338.636 218.02 339.596 218.98 339.596 220.165C339.596 221.349 338.635 222.31 337.451 222.31Z" fill="white"></path><path d="M337.769 87.1004H274.921C273.517 87.1004 272.379 85.9624 272.379 84.5584V34.8584C272.379 33.4544 273.517 32.3164 274.921 32.3164H337.77C339.174 32.3164 340.312 33.4544 340.312 34.8584V84.5584C340.311 85.9624 339.173 87.1004 337.769 87.1004Z" fill="#263238"></path><g opacity="0.2"><path d="M334.002 80H279.002V81H334.002V80Z" fill="white"></path><path d="M334.002 75H279.002V76H334.002V75Z" fill="white"></path><path d="M334.002 70H279.002V71H334.002V70Z" fill="white"></path><path d="M334.002 65H279.002V66H334.002V65Z" fill="white"></path><path d="M334.002 60H279.002V61H334.002V60Z" fill="white"></path><path d="M334.002 55H279.002V56H334.002V55Z" fill="white"></path><path d="M334.002 50H279.002V51H334.002V50Z" fill="white"></path></g><path d="M278.863 81.0029V71.0029L282.809 67.0569C283.943 65.9229 285.783 65.9229 286.917 67.0569C288.008 68.1479 289.763 68.1959 290.911 67.1649C293.52 64.8239 297.396 64.5829 300.275 66.5829L301.476 67.4179C305.329 70.0949 310.566 69.5249 313.752 66.0809L316.471 63.1419C318.194 61.2799 321.063 61.0649 323.044 62.6499C324.869 64.1099 327.477 64.0559 329.24 62.5229L333.861 58.5039V81.0039H278.863V81.0029Z" fill="#407BFF"></path><path opacity="0.2" d="M278.863 81.0029V71.0029L282.809 67.0569C283.943 65.9229 285.783 65.9229 286.917 67.0569C288.008 68.1479 289.763 68.1959 290.911 67.1649C293.52 64.8239 297.396 64.5829 300.275 66.5829L301.476 67.4179C305.329 70.0949 310.566 69.5249 313.752 66.0809L316.471 63.1419C318.194 61.2799 321.063 61.0649 323.044 62.6499C324.869 64.1099 327.477 64.0559 329.24 62.5229L333.861 58.5039V81.0039H278.863V81.0029Z" fill="white"></path><path d="M278.863 81.0023L288.867 71.5323C290.144 70.2953 292.2 70.3863 293.363 71.7313C294.513 73.0613 296.539 73.1683 297.822 71.9653L302.524 67.5583C304.612 65.6013 307.808 65.4403 310.083 67.1763C312.403 68.9463 315.671 68.7393 317.749 66.6903L317.985 66.4573C319.18 65.2793 321.095 65.2673 322.305 66.4303C323.637 67.7123 325.714 67.8053 327.156 66.6483L333.864 61.4473V81.0023H278.863Z" fill="#407BFF"></path><path opacity="0.2" d="M321.944 43.1845H290.745C289.56 43.1845 288.6 42.2245 288.6 41.0395C288.6 39.8545 289.56 38.8945 290.745 38.8945H321.944C323.129 38.8945 324.089 39.8545 324.089 41.0395C324.089 42.2245 323.129 43.1845 321.944 43.1845Z" fill="white"></path><path d="M304.674 123.834L294.833 117.001C294.833 117.001 293.333 111.607 292.666 111.054C291.999 110.501 282.999 107.168 281.833 107.668C280.666 108.168 280.833 118.458 281.833 118.73C282.833 119.002 291 121.502 291 121.502L301.5 130.002L304.674 123.834Z" fill="#E4897B"></path><path d="M365.75 126.001C365.75 126.001 365.31 126.411 364.58 127.141C362.86 128.821 359 132.211 355 135.841C355 135.851 355 135.851 355 135.851C347 142.411 337.13 149.741 330.97 149.181C319.97 148.181 295.965 128.691 295.965 128.691L300.492 120.391C300.492 120.391 317.996 132.001 328.496 134.441C338.996 136.881 355.998 105.501 364.158 103.311L365.75 126.001Z" fill="#407BFF"></path><path opacity="0.6" d="M365.75 126.001C365.75 126.001 365.31 126.411 364.58 127.141C362.86 128.821 359 132.211 355 135.841C355 135.851 355 135.851 355 135.851C347 142.411 337.13 149.741 330.97 149.181C319.97 148.181 295.965 128.691 295.965 128.691L300.492 120.391C300.492 120.391 317.996 132.001 328.496 134.441C338.996 136.881 355.998 105.501 364.158 103.311L365.75 126.001Z" fill="white"></path><path d="M302.334 120.039L296.834 131.001L294.834 128.001L299.501 118.729L302.334 120.039Z" fill="#407BFF"></path><path opacity="0.7" d="M302.334 120.039L296.834 131.001L294.834 128.001L299.501 118.729L302.334 120.039Z" fill="white"></path><path opacity="0.2" d="M364.611 127.14C362.891 128.82 359.341 132.21 355.061 135.84C357.001 126.98 363.171 119.67 363.171 119.67L364.611 127.14Z" fill="black"></path><path d="M365.481 354.028L357.368 354.885L355.846 337.388L363.958 336.531L365.481 354.028Z" fill="#E4897B"></path><path d="M405.961 353.437H398.101L397.451 335.227H405.321L405.961 353.437Z" fill="#E4897B"></path><path d="M397.011 352.528H406.561C406.883 352.53 407.161 352.754 407.231 353.068L408.781 360.068C408.914 360.695 408.513 361.31 407.886 361.443C407.802 361.461 407.717 361.469 407.631 361.468C404.541 361.418 402.291 361.228 398.411 361.228C396.021 361.228 388.811 361.478 385.511 361.478C382.211 361.478 381.781 358.218 383.131 357.918C389.191 356.598 393.751 354.768 395.691 353.028C396.051 352.698 396.523 352.519 397.011 352.528Z" fill="#2E353A"></path><path d="M394.411 353.907C393.877 353.95 393.344 353.809 392.901 353.507C392.606 353.264 392.458 352.885 392.511 352.507C392.505 352.286 392.631 352.082 392.831 351.987C393.701 351.537 396.241 353.097 396.521 353.277C396.587 353.311 396.624 353.384 396.611 353.457C396.601 353.534 396.546 353.597 396.471 353.617C395.797 353.789 395.106 353.887 394.411 353.907ZM393.241 352.277C393.158 352.27 393.074 352.287 393.001 352.327C392.951 352.327 392.891 352.397 392.881 352.547C392.849 352.798 392.943 353.048 393.131 353.217C394.013 353.617 395.014 353.667 395.931 353.357C395.112 352.828 394.199 352.462 393.241 352.277Z" fill="#407BFF"></path><path d="M396.421 353.628H396.331C395.521 353.188 393.951 351.458 394.111 350.628C394.168 350.342 394.42 350.137 394.711 350.138C394.997 350.1 395.284 350.188 395.501 350.378C396.411 351.118 396.601 353.378 396.611 353.488C396.612 353.556 396.578 353.621 396.521 353.658C396.485 353.659 396.45 353.648 396.421 353.628ZM394.841 350.438H394.751C394.511 350.438 394.491 350.578 394.481 350.628C394.381 351.138 395.381 352.448 396.191 353.058C396.138 352.162 395.814 351.304 395.261 350.598C395.145 350.496 394.996 350.439 394.841 350.438Z" fill="#407BFF"></path><path d="M356.511 352.278H366.061C366.383 352.28 366.661 352.504 366.731 352.818L368.281 359.818C368.414 360.445 368.013 361.06 367.386 361.193C367.302 361.211 367.217 361.219 367.131 361.218C364.041 361.168 361.791 360.978 357.911 360.978C355.521 360.978 348.311 361.228 345.011 361.228C341.711 361.228 341.281 357.968 342.631 357.668C348.691 356.348 353.251 354.518 355.191 352.778C355.551 352.448 356.023 352.269 356.511 352.278Z" fill="#2E353A"></path><path d="M353.911 353.657C353.377 353.7 352.844 353.559 352.401 353.257C352.106 353.014 351.958 352.635 352.011 352.257C352.005 352.036 352.131 351.832 352.331 351.737C353.201 351.287 355.741 352.847 356.021 353.027C356.087 353.061 356.124 353.134 356.111 353.207C356.101 353.284 356.046 353.347 355.971 353.367C355.297 353.539 354.606 353.637 353.911 353.657ZM352.741 352.027C352.658 352.02 352.574 352.037 352.501 352.077C352.451 352.077 352.391 352.147 352.381 352.297C352.349 352.548 352.443 352.798 352.631 352.967C353.513 353.367 354.514 353.417 355.431 353.107C354.612 352.578 353.699 352.212 352.741 352.027Z" fill="#407BFF"></path><path d="M355.921 353.378H355.831C355.021 352.938 353.451 351.208 353.611 350.378C353.668 350.092 353.92 349.887 354.211 349.888C354.497 349.85 354.784 349.938 355.001 350.128C355.911 350.868 356.101 353.128 356.111 353.238C356.112 353.306 356.078 353.371 356.021 353.408C355.985 353.409 355.95 353.398 355.921 353.378ZM354.341 350.188H354.251C354.011 350.188 353.991 350.328 353.981 350.378C353.881 350.888 354.881 352.198 355.691 352.808C355.638 351.912 355.314 351.054 354.761 350.348C354.645 350.246 354.496 350.189 354.341 350.188Z" fill="#407BFF"></path><path opacity="0.2" d="M363.958 336.531L355.846 337.388L356.638 346.413L364.751 345.556L363.958 336.531Z" fill="black"></path><path opacity="0.2" d="M405.321 335.238H397.451L397.791 344.628H405.661L405.321 335.238Z" fill="black"></path><path d="M402.075 175.5H360.351C356.384 197.163 343.966 273.823 352.875 342.128L367 340.376C367 340.376 365.692 249.699 378.164 216.176C379.598 234.117 381.302 253.206 382.781 263.363C386.411 288.363 394.181 342.999 394.181 342.999H408.561C408.561 342.999 405.621 290.702 404.261 266.132C402.774 239.459 402.132 180.978 402.075 175.5Z" fill="#407BFF"></path><path opacity="0.2" d="M378.16 216.181C376.32 221.121 374.79 227.291 373.5 234.231C372.333 218.266 377 201.334 377 201.334L378.16 216.181Z" fill="black"></path><path d="M351.259 345.42L368.742 342.819L368.207 337.977L350.021 340.365L351.259 345.42Z" fill="#407BFF"></path><path opacity="0.6" d="M351.259 345.42L368.742 342.819L368.207 337.977L350.021 340.365L351.259 345.42Z" fill="white"></path><path d="M392.451 343.117H409.411V338.047L391.811 337.717L392.451 343.117Z" fill="#407BFF"></path><path opacity="0.6" d="M392.451 343.117H409.411V338.047L391.811 337.717L392.451 343.117Z" fill="white"></path><path d="M360 176H402V181L359.465 180.483L360 176Z" fill="#263238"></path><path d="M388.5 173.75H387V182.625H388.5V173.75Z" fill="#407BFF"></path><path d="M367.25 173.75H365.75V182.625H367.25V173.75Z" fill="#407BFF"></path><path d="M379.143 175.125H371.375V180.722H379.143V175.125Z" fill="white"></path><path d="M364.158 103.311C364.158 103.311 390.699 102.061 410.473 107.052C410.473 107.052 401.743 151.001 402.075 176.001H360C360 176.001 357.265 129.112 364.158 103.311Z" fill="#407BFF"></path><path opacity="0.6" d="M410.47 107.051C410.47 107.051 408.73 115.811 406.83 127.731C406.13 132.161 405.4 137.031 404.73 142.051C403.18 153.771 401.94 166.311 402.07 176.001H360C360 176.001 357.27 129.111 364.16 103.311C364.16 103.311 390.7 102.061 410.47 107.051Z" fill="white"></path><path d="M378.026 106.676L379.143 112.167C379.143 112.167 372.75 138.834 371.375 152.667L373.704 155L377.37 152.667C377.37 152.667 377.698 124.5 380.932 112.667L386.729 107.92L382.166 106.443L378.026 106.676Z" fill="#407BFF"></path><path d="M372.314 67.5C372.314 67.5 370.667 78.333 376.417 82.5C382.167 86.667 382.167 66.5 382.167 66.5L372.314 67.5Z" fill="#2E353A"></path><path d="M395.381 104.251C391.551 107.731 382.168 106.444 382.168 106.444C382.168 106.444 376.311 104.841 377.541 103.011C380.991 102.441 382.661 100.831 383.351 98.771C383.751 97.571 383.811 96.221 383.701 94.831C383.651 94.101 383.541 93.361 383.411 92.631L395.011 84.041C393.491 89.711 391.631 100.141 395.381 104.251Z" fill="#E4897B"></path><path opacity="0.2" d="M392.33 89.5C391.87 96.46 386.15 98.38 383.35 98.77C383.75 97.57 383.81 96.22 383.7 94.83L392.33 89.5Z" fill="black"></path><path d="M393.11 91.1106C390.32 95.1206 385.77 96.1706 381.82 94.9206C379.28 94.1206 376.99 92.3606 375.57 89.8306C375.38 89.5006 375.21 89.1506 375.05 88.7906C372.22 82.1706 371.32 70.5906 378.32 66.2506C383.29 63.1206 389.87 64.6106 393 69.5906C393.9 71.0006 394.44 72.6106 394.6 74.2806C395.46 82.0206 396.33 86.5306 393.11 91.1106Z" fill="#E4897B"></path><path d="M383.317 78.4162C383.466 79.0282 383.184 79.6012 382.769 79.6712C382.354 79.7412 381.944 79.2852 381.834 78.6642C381.724 78.0432 381.977 77.4762 382.382 77.4092C382.787 77.3412 383.204 77.7852 383.317 78.4162Z" fill="#2E353A"></path><path d="M376.252 79.6228C376.401 80.2348 376.109 80.8108 375.703 80.8778C375.298 80.9458 374.878 80.4918 374.768 79.8708C374.658 79.2488 374.911 78.6828 375.316 78.6158C375.722 78.5478 376.149 79.0298 376.252 79.6228Z" fill="#2E353A"></path><path d="M378.55 79.5469C378.132 81.5849 377.435 83.5559 376.477 85.4039C377.452 85.8769 378.587 85.8939 379.576 85.4519L378.55 79.5469Z" fill="#DE5753"></path><path d="M385.119 75.7533C384.987 75.7953 384.842 75.7643 384.739 75.6713C384.064 75.0073 383.116 74.7003 382.18 74.8433C381.982 74.8923 381.781 74.7713 381.732 74.5723C381.683 74.3743 381.804 74.1733 382.003 74.1243H382.005C383.183 73.9133 384.391 74.2863 385.244 75.1263C385.397 75.2613 385.411 75.4953 385.276 75.6483C385.274 75.6503 385.272 75.6533 385.27 75.6553C385.225 75.6953 385.174 75.7293 385.119 75.7533Z" fill="#2E353A"></path><path d="M381.143 88.5136C383.005 88.4786 384.733 87.5386 385.773 85.9936C385.827 85.8996 385.796 85.7796 385.703 85.7236C385.615 85.6666 385.497 85.6926 385.441 85.7806C385.438 85.7846 385.436 85.7886 385.433 85.7936C384.442 87.2026 382.845 88.0616 381.123 88.1136C381.018 88.1136 380.933 88.1976 380.932 88.3026C380.932 88.3096 380.932 88.3166 380.933 88.3236C380.932 88.4286 381.017 88.5136 381.122 88.5146C381.129 88.5146 381.137 88.5136 381.143 88.5136Z" fill="#2E353A"></path><path d="M372.801 77.7036C372.737 77.7426 372.662 77.7616 372.587 77.7556C372.39 77.7016 372.274 77.4976 372.328 77.3006C372.329 77.2976 372.329 77.2956 372.33 77.2926C372.639 76.1316 373.493 75.1946 374.62 74.7796C374.815 74.7206 375.022 74.8306 375.081 75.0266V75.0276C375.135 75.2236 375.026 75.4266 374.833 75.4896C373.953 75.8436 373.292 76.5916 373.05 77.5086C373.001 77.6076 372.909 77.6786 372.801 77.7036Z" fill="#2E353A"></path><path d="M387.334 65.668V69.126C388.524 69.585 389.352 70.763 389.001 72.168C388.251 75.168 390.419 79.414 392.834 80.918C392.834 80.918 392.751 79.668 393.834 79.835C394.917 80.002 395.417 86.502 393.751 89.835C393.751 89.835 396.501 86.668 397.418 79.668C398.266 73.194 397.828 67.939 396.242 65.668H387.334Z" fill="#2E353A"></path><path d="M396.241 66.6673C396.241 66.6673 398.834 60.8343 389.167 59.5003C379.5 58.1673 369.334 62.0003 369.334 62.0003C369.334 62.0003 368.834 71.2553 377.017 71.1673C385.013 71.0803 396.241 66.6673 396.241 66.6673Z" fill="#2E353A"></path><path d="M399.028 80.0021C398.473 81.8841 397.195 83.4691 395.473 84.4101C393.184 85.6391 391.474 83.7261 391.629 81.2681C391.788 79.0851 393.145 75.7461 395.681 75.5541C398.215 75.3621 399.68 77.6831 399.028 80.0021Z" fill="#E4897B"></path><path d="M393.669 99.834L382.581 104.834L381.931 100.826L377.854 102.26C376.391 102.775 375.472 104.226 375.633 105.769L376.093 110.168L381.719 107.089L384.522 111.054L397.841 104.639L393.669 99.834Z" fill="#407BFF"></path><path opacity="0.7" d="M393.669 99.834L382.581 104.834L381.931 100.826L377.854 102.26C376.391 102.775 375.472 104.226 375.633 105.769L376.093 110.168L381.719 107.089L384.522 111.054L397.841 104.639L393.669 99.834Z" fill="white"></path><path opacity="0.2" d="M406.83 127.729C406.13 132.159 405.4 137.029 404.73 142.049C400.14 133.359 403.91 124.859 403.91 124.859L406.83 127.729Z" fill="black"></path><path d="M410.472 107.051C415.25 109.25 430.776 140.405 429.75 157.99C428.75 175.125 402 196.5 402 196.5C402 196.5 396.207 191.805 395.4 187.762C395.4 187.762 414.25 168.228 414.75 157.99C415.241 147.93 404.25 130 404.25 130C404.25 130 403 122.5 405.25 116C407.5 109.5 410.472 107.051 410.472 107.051Z" fill="#407BFF"></path><path opacity="0.6" d="M410.472 107.051C415.25 109.25 430.776 140.405 429.75 157.99C428.75 175.125 402 196.5 402 196.5C402 196.5 396.207 191.805 395.4 187.762C395.4 187.762 414.25 168.228 414.75 157.99C415.241 147.93 404.25 130 404.25 130C404.25 130 403 122.5 405.25 116C407.5 109.5 410.472 107.051 410.472 107.051Z" fill="white"></path><path d="M395.4 183.6C395.4 183.6 399.756 193.379 403.378 195.356C403.378 195.356 404.166 198.667 401 203.167C397.833 207.667 385.634 192.2 395.4 183.6Z" fill="#407BFF"></path><path d="M133.984 354.028L142.097 354.885L143.619 337.388L135.507 336.531L133.984 354.028Z" fill="#E4897B"></path><path d="M93.5059 353.437H101.366L102.016 335.227H94.1459L93.5059 353.437Z" fill="#E4897B"></path><path d="M102.456 352.526H92.9056C92.5836 352.528 92.3056 352.752 92.2356 353.066L90.6856 360.066C90.5526 360.693 90.9536 361.308 91.5806 361.441C91.6646 361.459 91.7506 361.467 91.8356 361.466C94.9256 361.416 97.1756 361.226 101.056 361.226C103.446 361.226 110.656 361.476 113.956 361.476C117.256 361.476 117.686 358.216 116.336 357.916C110.276 356.596 105.716 354.766 103.776 353.026C103.416 352.696 102.944 352.517 102.456 352.526Z" fill="#2E353A"></path><path d="M142.956 352.276H133.406C133.084 352.278 132.806 352.502 132.736 352.816L131.186 359.816C131.053 360.443 131.454 361.058 132.081 361.191C132.165 361.209 132.251 361.217 132.336 361.216C135.426 361.166 137.676 360.976 141.556 360.976C143.946 360.976 151.156 361.226 154.456 361.226C157.756 361.226 158.186 357.966 156.836 357.666C150.776 356.346 146.216 354.516 144.276 352.776C143.916 352.446 143.444 352.267 142.956 352.276Z" fill="#2E353A"></path><path d="M144.36 349H132.83C132.83 349 133.77 249.745 121.3 216.225C120.42 227.305 119.43 238.802 118.46 248.383C117.85 254.313 117.25 259.407 116.68 263.287C113.05 288.287 103.89 350.001 103.89 350.001H92.5C92.5 350.001 93.85 290.866 95.2 266.296C96.69 239.625 97.33 181 97.39 176H139.11C143.08 197 153.26 281 144.36 349Z" fill="#263238"></path><path opacity="0.1" d="M144.36 349H132.83C132.83 349 133.77 249.745 121.3 216.225C120.42 227.305 119.43 238.802 118.46 248.383C117.85 254.313 117.25 259.407 116.68 263.287C113.05 288.287 103.89 350.001 103.89 350.001H92.5C92.5 350.001 93.85 290.866 95.2 266.296C96.69 239.625 97.33 181 97.39 176H139.11C143.08 197 153.26 281 144.36 349Z" fill="white"></path><path d="M133.625 113.911L124.216 98.5877C124.216 98.5877 121.782 98.1477 120.335 96.1007C118.889 94.0537 117.981 86.1207 118.666 85.7627C119.351 85.4047 126.649 86.2617 127.161 87.2407C127.672 88.2187 129.113 96.3407 129.113 96.3407L139.956 109.047L133.625 113.911Z" fill="#E4897B"></path><path opacity="0.2" d="M133.625 113.911L124.216 98.5877C124.216 98.5877 121.782 98.1477 120.335 96.1007C118.889 94.0537 117.981 86.1207 118.666 85.7627C119.351 85.4047 126.649 86.2617 127.161 87.2407C127.672 88.2187 129.113 96.3407 129.113 96.3407L139.956 109.047L133.625 113.911Z" fill="black"></path><path d="M136.259 101.313L133.841 98.875L125.762 104.875L126.522 108L136.259 101.313Z" fill="#407BFF"></path><path opacity="0.6" d="M136.259 101.313L133.841 98.875L125.762 104.875L126.522 108L136.259 101.313Z" fill="white"></path><path d="M129.918 104.486L136.259 100.582C136.259 100.582 154.281 124.915 156.433 136.999C158.585 149.083 134.335 122.916 134.335 122.916L129.918 104.486Z" fill="#407BFF"></path><path d="M90.2909 107.088C90.2909 107.088 86.5139 109.238 85.9659 119.75C85.4719 129.226 88.5259 149.398 94.4659 153.806C103.961 160.852 138.466 151.137 138.466 151.137L137.136 140.963C137.136 140.963 111.016 144.425 104.796 140.963C98.5759 137.501 96.7159 119.751 96.7159 119.751C96.7159 119.751 94.1159 108.176 90.2909 107.088Z" fill="#407BFF"></path><path opacity="0.2" d="M90.2909 107.088C90.2909 107.088 86.5139 109.238 85.9659 119.75C85.4719 129.226 88.5259 149.398 94.4659 153.806C103.961 160.852 138.466 151.137 138.466 151.137L137.136 140.963C137.136 140.963 111.016 144.425 104.796 140.963C98.5759 137.501 96.7159 119.751 96.7159 119.751C96.7159 119.751 94.1159 108.176 90.2909 107.088Z" fill="black"></path><path d="M124.42 88.7886C124.26 89.1486 124.09 89.4986 123.9 89.8286C122.78 91.8286 121.11 93.3486 119.2 94.2886C118.7 94.5386 118.18 94.7486 117.65 94.9186C114.85 95.8086 111.75 95.5386 109.19 93.8686C108.14 93.1986 107.17 92.2786 106.36 91.1086C103.14 86.5286 104.01 82.0186 104.87 74.2786C105.03 72.6086 105.57 70.9986 106.47 69.5886C109.6 64.6086 116.18 63.1186 121.15 66.2486C128.15 70.5886 127.25 82.1686 124.42 88.7886Z" fill="#E4897B"></path><path opacity="0.2" d="M119.201 94.29C118.701 94.54 118.181 94.75 117.651 94.92C114.851 95.81 111.751 95.54 109.191 93.87C109.981 92.48 111.001 91.5 111.001 91.5C111.001 91.5 115.701 91.57 119.201 94.29Z" fill="black"></path><path d="M104.086 104.249C107.916 107.729 117.299 106.442 117.299 106.442C117.299 106.442 123.156 104.839 121.926 103.009C118.476 102.439 116.806 100.829 116.116 98.7691C115.716 97.5691 115.656 96.2191 115.766 94.8291C115.816 94.0991 115.926 93.3591 116.056 92.6291L104.456 84.0391C105.976 89.7091 107.836 100.139 104.086 104.249Z" fill="#E4897B"></path><path d="M123.334 71.8323C123.334 71.8323 125.504 79.1493 118.003 84.4073C118.003 84.4073 114.848 91.1653 113.091 91.9993C111.334 92.8323 107.359 92.3323 106.013 91.9993C104.667 91.6663 97.751 85.9163 99.751 72.4163C101.751 58.9163 113.091 63.1863 113.091 63.1863C113.091 63.1863 116.964 59.8323 124.168 63.9993C130.176 67.4743 129.001 73.9993 123.334 71.8323Z" fill="#2E353A"></path><path d="M116.982 80.9137C117.158 82.6587 117.868 84.0398 118.957 84.7518C120.406 85.6788 121.804 83.6528 121.968 81.3098C122.1 79.2308 121.529 76.1767 119.794 76.2737C118.059 76.3697 116.788 78.7607 116.982 80.9137Z" fill="#E4897B"></path><path d="M104.086 101.748L105.251 97.2485C105.251 97.2485 116.725 95.7155 121.988 100.794L120.626 106.123L104.086 101.748Z" fill="#407BFF"></path><path opacity="0.6" d="M104.086 101.748L105.251 97.2485C105.251 97.2485 116.725 95.7155 121.988 100.794L120.626 106.123L104.086 101.748Z" fill="white"></path><path d="M100.736 104.779L104.086 99.4992C104.086 99.4992 118.431 95.9732 125.216 104.486C132.001 112.999 100.736 104.779 100.736 104.779Z" fill="#407BFF"></path><path opacity="0.2" d="M100.736 104.779L104.086 99.4992C104.086 99.4992 118.431 95.9732 125.216 104.486C132.001 112.999 100.736 104.779 100.736 104.779Z" fill="black"></path><path d="M125.217 143.636L143.155 142.393C143.155 142.393 144.673 140.439 147.157 140.105C149.641 139.771 157.092 142.641 157.092 143.414C157.092 144.187 152.952 150.258 151.849 150.258C150.746 150.258 142.88 147.774 142.88 147.774L126.598 151.5L125.217 143.636Z" fill="#E4897B"></path><path d="M90.166 107.009C92.476 115.489 94.146 124.139 95.166 132.879C95.496 135.559 95.766 138.189 95.986 140.739C96.276 143.979 96.476 147.099 96.636 150.059C96.836 153.809 96.896 158.239 96.886 162.599C96.866 172.619 93.501 192.938 93.501 192.938C101.501 194.938 127.251 194.845 143.243 191.499C144.883 178.669 141.996 156.629 141.376 145.589C140.876 136.329 139.846 128.129 138.726 121.659C137.746 115.989 136.706 111.659 135.906 109.139C134.956 106.159 132.366 104.009 129.266 103.629C127.736 103.439 125.966 103.249 124.106 103.139C123.386 103.139 122.666 103.069 121.936 103.059C115.966 103.129 110.016 103.539 104.096 104.299C102.976 104.429 101.836 104.599 100.736 104.779C95.106 105.639 90.166 107.009 90.166 107.009Z" fill="#407BFF"></path><path d="M132.008 104.486C141.466 105.249 160.071 136.181 156.571 142.904C153.071 149.626 147.203 152.749 137.084 133.749C126.966 114.749 132.008 104.486 132.008 104.486Z" fill="#407BFF"></path><path opacity="0.2" d="M132.008 104.486C141.466 105.249 160.071 136.181 156.571 142.904C153.071 149.626 147.203 152.749 137.084 133.749C126.966 114.749 132.008 104.486 132.008 104.486Z" fill="black"></path><path opacity="0.2" d="M121.3 216.18C120.42 227.26 119.43 238.78 118.46 248.36C117.04 234.53 115.3 224.67 115.3 224.67C115.3 224.67 113.67 223.33 109.19 216.18C104.71 209.02 109.19 195.68 109.19 195.68C109.05 208.08 121.3 216.18 121.3 216.18Z" fill="black"></path><path opacity="0.2" d="M108 104.486C108 104.486 107.498 105.564 107.035 107.571C106.809 108.574 106.569 109.801 106.431 111.226C106.269 112.647 106.203 114.261 106.205 116.019C106.216 117.777 106.334 119.681 106.583 121.68C106.681 122.682 106.886 123.7 107.038 124.745C107.241 125.786 107.448 126.85 107.659 127.932C107.861 129.02 108.092 130.118 108.279 131.245C108.449 132.378 108.621 133.525 108.794 134.681C108.937 135.837 109.081 137.002 109.225 138.171C109.346 139.342 109.468 140.518 109.589 141.694C109.996 146.404 110.279 151.12 110.496 155.542C110.71 159.964 110.773 164.097 110.848 167.636C110.916 171.176 110.881 174.128 110.881 176.192C110.85 178.257 110.833 179.437 110.833 179.437C110.833 179.437 110.614 174.723 110.286 167.653C110.129 164.119 109.877 159.999 109.63 155.587C109.371 151.175 109.04 146.473 108.594 141.785C108.484 140.613 108.375 139.441 108.265 138.274C108.132 137.11 108 135.95 107.869 134.8C107.709 133.658 107.551 132.525 107.394 131.405C107.219 130.286 106.998 129.179 106.806 128.091C106.615 127.017 106.391 125.928 106.23 124.874C106.106 123.809 105.929 122.775 105.859 121.756C105.666 119.724 105.602 117.792 105.642 116.012C105.68 114.232 105.829 112.603 106.062 111.176C106.27 109.745 106.571 108.519 106.846 107.521C107.417 105.526 108 104.486 108 104.486Z" fill="black"></path></svg>