<svg xmlns="http://www.w3.org/2000/svg" width="3499" height="2737" viewBox="0 0 3499 2737" fill="none"><path d="M98.334 2732.61L523.387 2730.53L948.44 2729.34L1798.54 2728.34L2648.65 2729.32L3073.7 2730.52L3498.76 2732.61L3073.7 2734.7L2648.65 2735.9L1798.54 2736.88L948.44 2735.88L523.387 2734.69L98.334 2732.61Z" fill="#333333"></path><path d="M1988.83 2284.12H2666.4C2685.21 2284.12 2700.61 2300.51 2700.61 2320.54V2450.67L2768.7 2426.63L2700.61 2502.02V2532.72C2700.61 2552.75 2685.21 2569.14 2666.4 2569.14H1988.83C1970.01 2569.14 1954.62 2552.75 1954.62 2532.72V2320.54C1954.62 2300.51 1970.01 2284.12 1988.83 2284.12Z" fill="#E6E6E6"></path><path d="M2642.47 2341.33H2013.37V2344.18H2642.47V2341.33Z" fill="#B3B3B3"></path><path d="M2642.47 2397.25H2013.37V2400.1H2642.47V2397.25Z" fill="#B3B3B3"></path><path d="M2642.47 2453.17H2013.37V2456.02H2642.47V2453.17Z" fill="#B3B3B3"></path><path d="M2642.47 2509.09H2013.37V2511.94H2642.47V2509.09Z" fill="#B3B3B3"></path><path d="M25.992 57.6611H379.464C393.819 57.6611 405.456 69.2981 405.456 83.6531V294.919C405.456 309.274 393.819 320.911 379.464 320.911C368.781 320.911 360.352 329.994 361.149 340.648L362.557 359.46L368.409 437.638L322.705 373.942L293.804 333.663C288.06 325.658 278.811 320.91 268.958 320.91H25.992C11.637 320.91 0 309.273 0 294.918V83.6522C0.001 69.2972 11.637 57.6611 25.992 57.6611Z" fill="#E6E6E6"></path><path d="M142.477 192.952C145.388 180.935 138.006 168.834 125.989 165.924C113.973 163.013 101.872 170.395 98.9613 182.412C96.0508 194.429 103.433 206.529 115.449 209.44C127.466 212.35 139.567 204.968 142.477 192.952Z" fill="#333333"></path><path d="M213.912 208.318C225.307 203.523 230.659 190.398 225.864 179.002C221.069 167.606 207.944 162.255 196.548 167.05C185.152 171.845 179.801 184.97 184.596 196.366C189.391 207.761 202.516 213.113 213.912 208.318Z" fill="#333333"></path><path d="M300.556 203.526C309.299 194.784 309.299 180.609 300.556 171.866C291.813 163.124 277.639 163.124 268.896 171.866C260.154 180.609 260.154 194.784 268.896 203.526C277.639 212.269 291.813 212.269 300.556 203.526Z" fill="#333333"></path><path d="M3136.08 2732.61H1972.44C1901.54 2732.61 1843.54 2674.61 1843.54 2603.71V128.898C1843.54 58.004 1901.54 0 1972.44 0H3136.08C3206.98 0 3264.98 58.004 3264.98 128.898V2603.71C3264.98 2674.61 3206.98 2732.61 3136.08 2732.61Z" fill="#333333"></path><path d="M3108.56 2656.83H1999.97C1945.41 2656.83 1901.19 2612.6 1901.19 2558.05V188.681C1901.19 134.127 1945.41 89.9023 1999.97 89.9023H3108.56C3163.11 89.9023 3207.34 134.127 3207.34 188.681V2558.05C3207.34 2612.6 3163.11 2656.83 3108.56 2656.83Z" fill="white"></path><path d="M3207.34 508.657V162.911C3207.34 122.59 3174.65 89.9023 3134.33 89.9023H1974.2C1933.88 89.9023 1901.19 122.589 1901.19 162.911V508.657H3207.34Z" fill="#2923ED"></path><path d="M3090.48 279.922C3091.39 272.9 3086.43 266.471 3079.41 265.562C3072.39 264.654 3065.96 269.61 3065.05 276.632C3064.14 283.654 3069.1 290.083 3076.12 290.992C3083.14 291.9 3089.57 286.944 3090.48 279.922Z" fill="white"></path><path d="M3077.81 347.817C3084.9 347.817 3090.64 342.077 3090.64 334.996C3090.64 327.915 3084.9 322.175 3077.81 322.175C3070.73 322.175 3064.99 327.915 3064.99 334.996C3064.99 342.077 3070.73 347.817 3077.81 347.817Z" fill="white"></path><path d="M3082.8 393.36C3089.35 390.65 3092.45 383.15 3089.74 376.608C3087.03 370.066 3079.53 366.96 3072.99 369.67C3066.45 372.379 3063.34 379.879 3066.05 386.421C3068.76 392.963 3076.26 396.07 3082.8 393.36Z" fill="white"></path><path d="M2422.69 359.052C2416.19 355.516 2411.1 350.634 2407.41 344.399C2403.72 338.167 2401.88 331.136 2401.88 323.305C2401.88 315.477 2403.74 308.445 2407.47 302.211C2411.19 295.978 2416.3 291.094 2422.8 287.558C2429.3 284.024 2436.58 282.256 2444.64 282.256C2451.18 282.256 2457.14 283.396 2462.54 285.676C2467.94 287.957 2472.5 291.263 2476.22 295.596L2466.65 304.604C2460.87 298.372 2453.76 295.255 2445.32 295.255C2439.85 295.255 2434.95 296.452 2430.61 298.846C2426.28 301.24 2422.9 304.567 2420.47 308.823C2418.03 313.081 2416.82 317.908 2416.82 323.304C2416.82 328.702 2418.03 333.529 2420.47 337.786C2422.9 342.044 2426.28 345.369 2430.61 347.763C2434.95 350.157 2439.85 351.354 2445.32 351.354C2453.76 351.354 2460.87 348.201 2466.65 341.89L2476.22 351.013C2472.5 355.346 2467.92 358.652 2462.48 360.933C2457.05 363.213 2451.06 364.353 2444.53 364.353C2436.47 364.353 2429.19 362.586 2422.69 359.052Z" fill="white"></path><path d="M2542.13 308.365C2546.77 312.853 2549.09 319.503 2549.09 328.32V363.214H2534.83V330.145C2534.83 324.825 2533.58 320.815 2531.07 318.116C2528.56 315.418 2524.99 314.067 2520.35 314.067C2515.11 314.067 2510.96 315.647 2507.92 318.799C2504.88 321.955 2503.36 326.496 2503.36 332.426V363.212H2489.11V278.604H2503.36V309.392C2505.72 306.884 2508.63 304.964 2512.08 303.634C2515.54 302.305 2519.4 301.638 2523.66 301.638C2531.34 301.638 2537.49 303.882 2542.13 308.365Z" fill="white"></path><path d="M2611.06 308.082C2615.81 312.377 2618.19 318.857 2618.19 327.523V363.213H2604.73V355.801C2602.98 358.464 2600.49 360.496 2597.26 361.902C2594.03 363.308 2590.13 364.011 2585.57 364.011C2581.01 364.011 2577.02 363.231 2573.6 361.674C2570.18 360.116 2567.54 357.951 2565.68 355.175C2563.81 352.401 2562.88 349.265 2562.88 345.767C2562.88 340.294 2564.91 335.904 2568.98 332.597C2573.05 329.291 2579.45 327.638 2588.19 327.638H2603.93V326.726C2603.93 322.469 2602.66 319.2 2600.11 316.919C2597.56 314.639 2593.78 313.499 2588.77 313.499C2585.34 313.499 2581.98 314.032 2578.68 315.095C2575.37 316.16 2572.58 317.642 2570.29 319.542L2564.71 309.165C2567.9 306.733 2571.74 304.871 2576.22 303.578C2580.71 302.286 2585.46 301.639 2590.48 301.639C2599.44 301.639 2606.31 303.788 2611.06 308.082ZM2598.06 351.183C2600.83 349.55 2602.79 347.212 2603.93 344.17V337.101H2589.22C2581.01 337.101 2576.91 339.801 2576.91 345.198C2576.91 347.783 2577.93 349.834 2579.99 351.354C2582.04 352.875 2584.89 353.635 2588.54 353.635C2592.11 353.636 2595.28 352.819 2598.06 351.183Z" fill="white"></path><path d="M2673.03 359.905C2671.36 361.273 2669.32 362.3 2666.93 362.984C2664.54 363.669 2662.01 364.01 2659.35 364.01C2652.66 364.01 2647.49 362.263 2643.84 358.765C2640.19 355.27 2638.37 350.176 2638.37 343.486V314.181H2628.33V302.778H2638.37V288.867H2652.62V302.778H2668.93V314.181H2652.62V343.144C2652.62 346.109 2653.34 348.372 2654.79 349.928C2656.23 351.487 2658.32 352.266 2661.06 352.266C2664.25 352.266 2666.91 351.43 2669.04 349.756L2673.03 359.905Z" fill="white"></path><path d="M2066.57 367.553L2013.78 333.908L2066.21 292.423L2071.52 299.129L2028.51 333.156L2071.16 360.34L2066.57 367.553Z" fill="white"></path><path d="M3089.22 722.101H2411.65C2392.84 722.101 2377.44 738.49 2377.44 758.521V888.649L2309.35 864.609L2377.44 939.995V970.697C2377.44 990.728 2392.84 1007.12 2411.65 1007.12H3089.22C3108.04 1007.12 3123.43 990.728 3123.43 970.697V758.521C3123.43 738.49 3108.04 722.101 3089.22 722.101Z" fill="#E6E6E6"></path><path d="M3064.68 779.306H2435.58V782.157H3064.68V779.306Z" fill="#B3B3B3"></path><path d="M3064.68 835.225H2435.58V838.076H3064.68V835.225Z" fill="#B3B3B3"></path><path d="M3064.68 891.142H2435.58V893.993H3064.68V891.142Z" fill="#B3B3B3"></path><path d="M3064.68 947.061H2435.58V949.912H3064.68V947.061Z" fill="#B3B3B3"></path><path d="M2017.33 1253.71H2694.9C2713.71 1253.71 2729.1 1270.1 2729.1 1290.13V1420.26L2797.2 1396.22L2729.1 1471.6V1502.3C2729.1 1522.34 2713.71 1538.72 2694.9 1538.72H2017.33C1998.51 1538.72 1983.12 1522.34 1983.12 1502.3V1290.13C1983.12 1270.1 1998.51 1253.71 2017.33 1253.71Z" fill="#2923ED"></path><path d="M2670.97 1310.91H2041.87V1313.77H2670.97V1310.91Z" fill="white"></path><path d="M2670.97 1366.83H2041.87V1369.68H2670.97V1366.83Z" fill="white"></path><path d="M2670.97 1422.75H2041.87V1425.6H2670.97V1422.75Z" fill="white"></path><path d="M2670.97 1478.67H2041.87V1481.52H2670.97V1478.67Z" fill="white"></path><path d="M2017.33 2256.16H2694.9C2713.71 2256.16 2729.1 2272.55 2729.1 2292.58V2422.71L2797.2 2398.67L2729.1 2474.06V2504.76C2729.1 2524.79 2713.71 2541.18 2694.9 2541.18H2017.33C1998.51 2541.18 1983.12 2524.79 1983.12 2504.76V2292.58C1983.12 2272.55 1998.51 2256.16 2017.33 2256.16Z" fill="#2923ED"></path><path d="M2670.97 2313.37H2041.87V2316.22H2670.97V2313.37Z" fill="white"></path><path d="M2670.97 2369.29H2041.87V2372.14H2670.97V2369.29Z" fill="white"></path><path d="M2670.97 2425.21H2041.87V2428.06H2670.97V2425.21Z" fill="white"></path><path d="M2670.97 2481.12H2041.87V2483.97H2670.97V2481.12Z" fill="white"></path><path d="M3092.99 1361.93C3155.06 1299.87 3155.06 1199.24 3092.99 1137.17C3030.93 1075.11 2930.3 1075.11 2868.23 1137.17C2806.17 1199.24 2806.17 1299.87 2868.23 1361.93C2930.3 1424 3030.93 1424 3092.99 1361.93Z" fill="#CCCCCC"></path><path d="M3089.22 1761.87H2411.65C2392.84 1761.87 2377.44 1778.26 2377.44 1798.29V1928.42L2309.35 1904.38L2377.44 1979.76V2010.46C2377.44 2030.5 2392.84 2046.88 2411.65 2046.88H3089.22C3108.04 2046.88 3123.43 2030.5 3123.43 2010.46V1798.29C3123.43 1778.26 3108.04 1761.87 3089.22 1761.87Z" fill="#E6E6E6"></path><path d="M3064.68 1819.08H2435.58V1821.93H3064.68V1819.08Z" fill="#B3B3B3"></path><path d="M3064.68 1874.99H2435.58V1877.85H3064.68V1874.99Z" fill="#B3B3B3"></path><path d="M3064.68 1930.91H2435.58V1933.76H3064.68V1930.91Z" fill="#B3B3B3"></path><path d="M3064.68 1986.83H2435.58V1989.68H3064.68V1986.83Z" fill="#B3B3B3"></path><path d="M2270.04 760.639C2270.04 813.918 2244.04 861.124 2204.05 890.286C2177.59 909.585 2144.98 920.959 2109.72 920.959C2074.46 920.959 2041.87 909.585 2015.42 890.286C1975.42 861.124 1949.43 813.917 1949.43 760.639C1949.43 672.127 2021.21 600.347 2109.72 600.347C2198.26 600.347 2270.04 672.126 2270.04 760.639Z" fill="#CCCCCC"></path><path d="M2145.36 770.792C2165.05 751.102 2165.05 719.179 2145.36 699.489C2125.67 679.798 2093.74 679.798 2074.05 699.489C2054.36 719.179 2054.36 751.103 2074.05 770.793C2093.74 790.483 2125.67 790.483 2145.36 770.792Z" fill="#999999"></path><path d="M2188.77 876.146V897.335C2166.6 913.508 2139.27 923.039 2109.72 923.039C2080.17 923.039 2052.87 913.507 2030.7 897.335V876.146C2030.7 832.501 2066.08 797.122 2109.72 797.122C2131.56 797.122 2151.31 805.961 2165.62 820.27C2179.93 834.579 2188.77 854.312 2188.77 876.146Z" fill="#999999"></path><path d="M2270.04 1780.62C2270.04 1833.9 2244.04 1881.11 2204.05 1910.27C2177.59 1929.57 2144.98 1940.95 2109.72 1940.95C2074.46 1940.95 2041.87 1929.57 2015.42 1910.27C1975.42 1881.11 1949.43 1833.9 1949.43 1780.62C1949.43 1692.11 2021.21 1620.33 2109.72 1620.33C2198.26 1620.33 2270.04 1692.11 2270.04 1780.62Z" fill="#CCCCCC"></path><path d="M2145.35 1790.77C2165.04 1771.08 2165.04 1739.16 2145.35 1719.47C2125.66 1699.78 2093.74 1699.78 2074.05 1719.47C2054.36 1739.16 2054.36 1771.08 2074.05 1790.77C2093.74 1810.46 2125.66 1810.46 2145.35 1790.77Z" fill="#999999"></path><path d="M2188.77 1896.13V1917.32C2166.6 1933.5 2139.27 1943.03 2109.72 1943.03C2080.17 1943.03 2052.87 1933.49 2030.7 1917.32V1896.13C2030.7 1852.49 2066.08 1817.11 2109.72 1817.11C2131.56 1817.11 2151.31 1825.95 2165.62 1840.26C2179.93 1854.57 2188.77 1874.3 2188.77 1896.13Z" fill="#999999"></path><path d="M81.8945 2726.45L506.948 2724.38L932 2723.18L1782.11 2722.18L2632.21 2723.17L3057.26 2724.36L3482.32 2726.45L3057.26 2728.55L2632.21 2729.74L1782.11 2730.73L932 2729.73L506.948 2728.53L81.8945 2726.45Z" fill="#333333"></path><path opacity="0.25" d="M931.643 2631.08C1159.68 2631.08 1344.53 2613.55 1344.53 2591.91C1344.53 2570.28 1159.68 2552.75 931.643 2552.75C703.61 2552.75 518.752 2570.28 518.752 2591.91C518.752 2613.55 703.61 2631.08 931.643 2631.08Z" fill="#B3B3B3"></path><path d="M483.43 1110.23H420.54C401.772 1110.23 386.557 1095.02 386.557 1076.25V811.08C386.557 792.312 401.772 777.097 420.54 777.097H483.43V1110.23Z" fill="#1F2031"></path><path d="M1356.94 1110.23H1419.83C1438.59 1110.23 1453.81 1095.02 1453.81 1076.25V811.08C1453.81 792.312 1438.59 777.097 1419.83 777.097H1356.94V1110.23Z" fill="#1F2031"></path><path d="M1339.43 1409.62H929.96H518.662C518.662 1409.62 495.764 1976.98 755.162 2330.9C851.161 2461.88 1006.93 2461.88 1102.93 2330.9C1362.33 1976.98 1339.43 1409.62 1339.43 1409.62Z" fill="#2923ED"></path><path d="M929.305 1474.12C1156.1 1474.12 1339.95 1447.09 1339.95 1413.75C1339.95 1380.4 1156.1 1353.38 929.305 1353.38C702.513 1353.38 518.662 1380.4 518.662 1413.75C518.662 1447.09 702.513 1474.12 929.305 1474.12Z" fill="#375992"></path><path d="M920.181 1762.66C857.756 1762.66 801.733 1730.43 770.319 1676.43C716.553 1584.02 706.942 1466.16 706.852 1464.98L712.537 1464.55C712.627 1465.71 722.152 1582.3 775.247 1673.56C805.63 1725.79 859.81 1756.96 920.182 1756.96C980.555 1756.96 1034.73 1725.79 1065.12 1673.56C1118.23 1582.27 1127.74 1465.71 1127.83 1464.55L1133.51 1464.98C1133.42 1466.16 1123.81 1584.02 1070.05 1676.43C1038.63 1730.43 982.607 1762.66 920.181 1762.66Z" fill="#1F2031"></path><path d="M1176.47 2221.64C1043.53 2153.58 917.555 2157.17 835.283 2172.16C746.039 2188.43 687.502 2221.25 686.921 2221.58L684.107 2216.62C684.694 2216.29 743.908 2183.06 834.041 2166.59C917.229 2151.41 1044.62 2147.74 1179.07 2216.56L1176.47 2221.64Z" fill="#1F2031"></path><path d="M928.117 1926.24C946.253 1926.24 960.955 1911.54 960.955 1893.41C960.955 1875.27 946.253 1860.57 928.117 1860.57C909.981 1860.57 895.279 1875.27 895.279 1893.41C895.279 1911.54 909.981 1926.24 928.117 1926.24Z" fill="#1F2031"></path><path d="M951.311 2043.33C964.135 2030.5 964.135 2009.71 951.312 1996.89C938.488 1984.06 917.696 1984.06 904.872 1996.89C892.048 2009.71 892.048 2030.5 904.872 2043.33C917.696 2056.15 938.488 2056.15 951.311 2043.33Z" fill="#1F2031"></path><path d="M316.552 1456C267.451 1506.43 211.168 1599.79 193.336 1768.94C187.056 1828.51 191.171 1888.85 207.045 1946.61C224.7 2010.84 257.972 2077.39 319.06 2061.17C333.781 2057.26 346.957 2049.01 357.627 2038.14C393.188 2001.92 483.361 1881.73 521.062 1568.27C522.867 1553.26 522.944 1538.06 520.877 1523.09C520.72 1521.95 520.55 1520.79 520.367 1519.61C505.246 1422.51 385.102 1385.58 316.552 1456Z" fill="#2923ED"></path><path d="M385.997 1805.93C335.895 1805.93 296.7 1791.52 269.215 1776.24C222.662 1750.35 199.437 1717.37 198.471 1715.98L203.153 1712.73C203.383 1713.06 226.735 1746.16 272.217 1771.38C314.116 1794.62 383.986 1815.75 478.872 1784.45L480.659 1789.86C445.766 1801.37 414.156 1805.93 385.997 1805.93Z" fill="#1F2031"></path><path d="M1536.95 1457.98C1586.05 1508.41 1642.34 1601.77 1660.17 1770.92C1666.45 1830.49 1662.33 1890.83 1646.46 1948.59C1628.8 2012.82 1595.53 2079.37 1534.44 2063.15C1519.72 2059.24 1506.55 2050.99 1495.88 2040.12C1460.32 2003.9 1370.14 1883.7 1332.44 1570.25C1330.64 1555.24 1330.56 1540.04 1332.63 1525.07C1332.78 1523.93 1332.95 1522.77 1333.14 1521.59C1348.26 1424.49 1468.4 1387.56 1536.95 1457.98Z" fill="#2923ED"></path><path d="M1467.51 1807.91C1439.35 1807.91 1407.75 1803.36 1372.85 1791.84L1374.63 1786.43C1469.65 1817.77 1539.58 1796.56 1581.52 1773.23C1626.92 1747.98 1650.12 1715.04 1650.35 1714.71L1655.03 1717.96C1654.07 1719.35 1630.84 1752.33 1584.29 1778.22C1556.81 1793.5 1517.6 1807.91 1467.51 1807.91Z" fill="#1F2031"></path><path d="M474.706 798.865L450.246 798.232C454.996 614.714 497.87 505.06 533 445.387C571.947 379.233 610.269 357.485 611.882 356.591L623.741 377.993L617.812 367.292L623.795 377.963C623.446 378.16 588.498 398.469 552.86 459.898C519.731 517.002 479.28 622.164 474.706 798.865Z" fill="#1F2031"></path><path d="M624.479 405.931C649.908 375.321 657.271 339.499 640.926 325.92C624.581 312.342 590.716 326.149 565.287 356.759C539.858 387.369 532.495 423.191 548.84 436.77C565.185 450.348 599.05 436.541 624.479 405.931Z" fill="#1F2031"></path><path d="M1369.68 798.865L1394.14 798.232C1389.39 614.714 1346.51 505.06 1311.38 445.387C1272.44 379.233 1234.11 357.485 1232.5 356.591L1220.64 377.993L1226.57 367.292L1220.59 377.963C1220.94 378.16 1255.88 398.469 1291.52 459.898C1324.65 517.002 1365.1 622.164 1369.68 798.865Z" fill="#1F2031"></path><path d="M1295.52 436.609C1311.86 423.03 1304.5 387.208 1279.07 356.598C1253.64 325.988 1219.78 312.181 1203.43 325.76C1187.09 339.338 1194.45 375.16 1219.88 405.77C1245.31 436.381 1279.17 450.188 1295.52 436.609Z" fill="#1F2031"></path><path d="M1119.85 1294.31H720.462C610.744 1294.31 511.875 1225.72 475.882 1122.08C408.307 927.494 487.024 717.492 487.024 717.492C521.572 620.577 591.133 557.035 664.559 515.49C667.299 513.948 670.04 512.431 672.78 510.939C826.753 427.481 1013.61 427.481 1167.58 510.939C1170.32 512.431 1173.09 513.948 1175.8 515.49C1249.23 557.036 1318.79 620.577 1353.34 717.492C1353.34 717.492 1430.8 924.147 1366.08 1117.41C1330.65 1223.17 1231.39 1294.31 1119.85 1294.31Z" fill="#2923ED"></path><path d="M920.212 674.56C687.01 673.2 663.971 542.481 661.721 516.291L667.4 515.804C669.577 541.128 691.995 667.528 920.212 668.859C1037.72 668.174 1098.21 626.161 1128.25 591.038C1160.54 553.279 1165.4 515.463 1164.93 512.363C1164.98 512.647 1165.29 513.495 1166.22 514.001L1168.95 508.993C1170 509.566 1172.46 510.908 1168.25 527.675C1164.4 542.967 1151.13 582.196 1111.07 616.106C1065.81 654.419 1001.6 674.085 920.212 674.56Z" fill="#1F2031"></path><path d="M1294.26 839.74C1261 794.259 1213.21 761 1158.93 745.875C1052.91 716.328 920.183 717.23 920.183 717.23C920.183 717.23 787.257 713.48 681.433 745.875C627.557 762.367 579.362 794.259 546.105 839.74C518.211 877.887 503.039 914.215 511.729 990.498C511.729 990.498 514.626 1145.96 666.227 1163.34H920.184H1174.14C1325.74 1145.96 1328.64 990.498 1328.64 990.498C1337.33 914.215 1322.15 877.887 1294.26 839.74Z" fill="#1F2031"></path><path opacity="0.68" d="M546.103 899.74C579.36 854.259 627.556 822.367 681.431 805.875C787.255 773.48 920.181 777.23 920.181 777.23C920.181 777.23 1052.9 776.328 1158.93 805.875C1213.21 821 1261 854.259 1294.26 899.74C1312.34 924.466 1325.06 948.441 1329.42 983.014C1336.3 911.799 1321.22 876.616 1294.26 839.74C1261 794.259 1213.21 761 1158.93 745.875C1052.9 716.328 920.181 717.23 920.181 717.23C920.181 717.23 787.255 713.48 681.431 745.875C627.555 762.367 579.36 794.259 546.103 839.74C519.138 876.617 504.065 911.8 510.942 983.014C515.299 948.441 528.023 924.466 546.103 899.74Z" fill="#1F2031"></path><path d="M807.023 954.755C797.242 954.755 789.064 949.078 788.535 941.752C785.893 905.192 765.218 882.743 751.558 882.743C737.898 882.743 717.223 905.192 714.581 941.752C714.035 949.328 705.352 955.152 695.086 954.735C684.867 954.33 677.026 947.858 677.574 940.282C681.132 891.021 712.248 855.266 751.558 855.266C790.868 855.266 821.983 891.021 825.542 940.282C826.09 947.859 818.249 954.33 808.03 954.735C807.693 954.748 807.357 954.755 807.023 954.755Z" fill="#F3C532"></path><path d="M1144.27 954.755C1134.49 954.755 1126.31 949.078 1125.78 941.752C1123.14 905.192 1102.47 882.743 1088.81 882.743C1075.15 882.743 1054.47 905.192 1051.83 941.752C1051.28 949.328 1042.62 955.152 1032.33 954.735C1022.12 954.33 1014.27 947.858 1014.82 940.282C1018.38 891.021 1049.5 855.266 1088.81 855.266C1128.12 855.266 1159.23 891.021 1162.79 940.282C1163.34 947.859 1155.5 954.33 1145.28 954.735C1144.94 954.748 1144.6 954.755 1144.27 954.755Z" fill="#F3C532"></path><path d="M920.183 1110.76C980.463 1110.88 1020.15 1068.07 1015.6 1035.69C1014.66 1026.14 1004.12 1021.11 995.103 1024.6C946.912 1043.26 893.456 1043.26 845.265 1024.6C836.247 1021.11 825.702 1026.14 824.767 1035.69C820.215 1068.07 859.903 1110.88 920.183 1110.76Z" fill="white"></path><path d="M2893.35 1314.23H2880.78C2877.03 1314.23 2873.98 1311.19 2873.98 1307.43V1254.43C2873.98 1250.68 2877.03 1247.64 2880.78 1247.64H2893.35V1314.23Z" fill="#1F2031"></path><path d="M3067.94 1314.23H3080.51C3084.26 1314.23 3087.31 1311.19 3087.31 1307.43V1254.43C3087.31 1250.68 3084.26 1247.64 3080.51 1247.64H3067.94V1314.23Z" fill="#1F2031"></path><path d="M2891.6 1251.99L2886.71 1251.86C2887.66 1215.18 2896.23 1193.26 2903.26 1181.34C2911.04 1168.11 2918.7 1163.77 2919.02 1163.59L2921.39 1167.86L2920.21 1165.73L2921.4 1167.86C2921.33 1167.9 2914.35 1171.96 2907.23 1184.24C2900.6 1195.65 2892.52 1216.67 2891.6 1251.99Z" fill="#1F2031"></path><path d="M2921.54 1173.44C2916.46 1179.56 2909.69 1182.32 2906.42 1179.6C2903.16 1176.89 2904.63 1169.73 2909.71 1163.61C2914.79 1157.49 2921.56 1154.73 2924.83 1157.44C2928.09 1160.16 2926.62 1167.32 2921.54 1173.44Z" fill="#1F2031"></path><path d="M3070.49 1251.99L3075.38 1251.86C3074.43 1215.18 3065.86 1193.26 3058.84 1181.34C3051.05 1168.11 3043.39 1163.77 3043.07 1163.59L3040.7 1167.86L3041.89 1165.73L3040.69 1167.86C3040.76 1167.9 3047.74 1171.96 3054.87 1184.24C3061.49 1195.65 3069.58 1216.67 3070.49 1251.99Z" fill="#1F2031"></path><path d="M3040.55 1173.44C3045.64 1179.56 3052.4 1182.32 3055.67 1179.6C3058.94 1176.89 3057.47 1169.73 3052.38 1163.61C3047.3 1157.49 3040.53 1154.73 3037.27 1157.44C3034 1160.16 3035.47 1167.32 3040.55 1173.44Z" fill="#1F2031"></path><path d="M3020.56 1351.02H2940.73C2918.8 1351.02 2899.03 1337.31 2891.84 1316.59C2878.33 1277.7 2894.07 1235.72 2894.07 1235.72C2900.97 1216.35 2914.87 1203.65 2929.55 1195.35C2930.1 1195.04 2930.65 1194.74 2931.19 1194.44C2961.97 1177.76 2999.32 1177.76 3030.1 1194.44C3030.64 1194.74 3031.2 1195.04 3031.74 1195.35C3046.42 1203.65 3060.32 1216.35 3067.22 1235.72C3067.22 1235.72 3082.71 1277.03 3069.77 1315.66C3062.69 1336.8 3042.85 1351.02 3020.56 1351.02Z" fill="#2923ED"></path><path d="M2980.65 1227.14C2934.04 1226.87 2929.43 1200.74 2928.98 1195.51L2930.12 1195.41C2930.55 1200.47 2935.04 1225.74 2980.65 1226C3004.14 1225.87 3016.23 1217.47 3022.23 1210.45C3028.69 1202.9 3029.66 1195.34 3029.57 1194.72C3029.57 1194.78 3029.64 1194.95 3029.82 1195.05L3030.37 1194.05C3030.58 1194.16 3031.07 1194.43 3030.23 1197.78C3029.46 1200.84 3026.8 1208.68 3018.8 1215.46C3009.75 1223.12 2996.92 1227.05 2980.65 1227.14Z" fill="#1F2031"></path><path d="M3055.42 1260.16C3048.77 1251.07 3039.21 1244.42 3028.37 1241.4C3007.17 1235.49 2980.64 1235.67 2980.64 1235.67C2980.64 1235.67 2954.08 1234.92 2932.92 1241.4C2922.15 1244.69 2912.52 1251.07 2905.87 1260.16C2900.3 1267.78 2897.27 1275.04 2899 1290.29C2899 1290.29 2899.58 1321.37 2929.88 1324.84H2980.64H3031.41C3061.71 1321.37 3062.29 1290.29 3062.29 1290.29C3064.02 1275.04 3060.99 1267.78 3055.42 1260.16Z" fill="#1F2031"></path><g opacity="0.68"><path d="M2905.87 1272.15C2912.52 1263.06 2922.16 1256.69 2932.92 1253.39C2954.08 1246.91 2980.65 1247.66 2980.65 1247.66C2980.65 1247.66 3007.17 1247.48 3028.37 1253.39C3039.22 1256.41 3048.77 1263.06 3055.42 1272.15C3059.03 1277.09 3061.57 1281.89 3062.44 1288.8C3063.82 1274.56 3060.81 1267.53 3055.42 1260.16C3048.77 1251.07 3039.22 1244.42 3028.37 1241.4C3007.17 1235.49 2980.65 1235.67 2980.65 1235.67C2980.65 1235.67 2954.08 1234.92 2932.92 1241.4C2922.16 1244.69 2912.52 1251.07 2905.87 1260.16C2900.48 1267.53 2897.47 1274.56 2898.85 1288.8C2899.72 1281.89 2902.26 1277.09 2905.87 1272.15Z" fill="#1F2031"></path></g><path d="M2958.03 1283.15C2956.07 1283.15 2954.44 1282.01 2954.33 1280.55C2953.8 1273.24 2949.67 1268.75 2946.94 1268.75C2944.21 1268.75 2940.08 1273.24 2939.55 1280.55C2939.44 1282.06 2937.71 1283.23 2935.65 1283.14C2933.61 1283.06 2932.04 1281.77 2932.15 1280.26C2932.86 1270.41 2939.08 1263.26 2946.94 1263.26C2954.8 1263.26 2961.02 1270.41 2961.73 1280.26C2961.84 1281.77 2960.27 1283.06 2958.23 1283.14C2958.16 1283.15 2958.09 1283.15 2958.03 1283.15Z" fill="#F3C532"></path><path d="M3025.44 1283.15C3023.48 1283.15 3021.85 1282.01 3021.74 1280.55C3021.21 1273.24 3017.08 1268.75 3014.35 1268.75C3011.62 1268.75 3007.49 1273.24 3006.96 1280.55C3006.85 1282.06 3005.12 1283.23 3003.06 1283.14C3001.02 1283.06 2999.45 1281.77 2999.56 1280.26C3000.27 1270.41 3006.49 1263.26 3014.35 1263.26C3022.21 1263.26 3028.43 1270.41 3029.14 1280.26C3029.25 1281.77 3027.68 1283.06 3025.64 1283.14C3025.57 1283.15 3025.5 1283.15 3025.44 1283.15Z" fill="#F3C532"></path><path d="M2980.65 1314.33C2992.69 1314.36 3000.63 1305.8 2999.72 1299.33C2999.53 1297.42 2997.42 1296.41 2995.62 1297.11C2985.99 1300.84 2975.3 1300.84 2965.67 1297.11C2963.87 1296.41 2961.76 1297.42 2961.57 1299.33C2960.66 1305.8 2968.6 1314.36 2980.65 1314.33Z" fill="white"></path><path d="M2980.65 2448.24C3068.42 2448.24 3139.58 2377.09 3139.58 2289.31C3139.58 2201.54 3068.42 2130.38 2980.65 2130.38C2892.87 2130.38 2821.72 2201.54 2821.72 2289.31C2821.72 2377.09 2892.87 2448.24 2980.65 2448.24Z" fill="#CCCCCC"></path><path d="M2893.35 2344.98H2880.78C2877.03 2344.98 2873.98 2341.94 2873.98 2338.19V2285.19C2873.98 2281.44 2877.03 2278.4 2880.78 2278.4H2893.35V2344.98Z" fill="#1F2031"></path><path d="M3067.94 2344.98H3080.51C3084.26 2344.98 3087.31 2341.94 3087.31 2338.19V2285.19C3087.31 2281.44 3084.26 2278.4 3080.51 2278.4H3067.94V2344.98Z" fill="#1F2031"></path><path d="M2891.6 2282.75L2886.71 2282.62C2887.66 2245.94 2896.23 2224.02 2903.26 2212.09C2911.04 2198.87 2918.7 2194.52 2919.02 2194.35L2921.39 2198.62L2920.21 2196.48L2921.4 2198.62C2921.33 2198.66 2914.35 2202.72 2907.23 2214.99C2900.6 2226.41 2892.52 2247.43 2891.6 2282.75Z" fill="#1F2031"></path><path d="M2921.56 2204.42C2926.64 2198.3 2928.11 2191.14 2924.85 2188.43C2921.58 2185.71 2914.81 2188.47 2909.73 2194.59C2904.64 2200.71 2903.17 2207.87 2906.44 2210.58C2909.71 2213.3 2916.48 2210.54 2921.56 2204.42Z" fill="#1F2031"></path><path d="M3070.49 2282.75L3075.38 2282.62C3074.43 2245.94 3065.86 2224.02 3058.84 2212.09C3051.05 2198.87 3043.39 2194.52 3043.07 2194.35L3040.7 2198.62L3041.89 2196.48L3040.69 2198.62C3040.76 2198.66 3047.74 2202.72 3054.87 2214.99C3061.49 2226.41 3069.58 2247.43 3070.49 2282.75Z" fill="#1F2031"></path><path d="M3040.55 2204.2C3045.64 2210.31 3052.4 2213.07 3055.67 2210.36C3058.94 2207.65 3057.47 2200.49 3052.38 2194.37C3047.3 2188.25 3040.53 2185.49 3037.27 2188.2C3034 2190.92 3035.47 2198.08 3040.55 2204.2Z" fill="#1F2031"></path><path d="M3020.56 2381.78H2940.73C2918.8 2381.78 2899.03 2368.07 2891.84 2347.35C2878.33 2308.46 2894.07 2266.48 2894.07 2266.48C2900.97 2247.11 2914.87 2234.41 2929.55 2226.11C2930.1 2225.8 2930.65 2225.5 2931.19 2225.2C2961.97 2208.52 2999.32 2208.52 3030.1 2225.2C3030.64 2225.5 3031.2 2225.8 3031.74 2226.11C3046.42 2234.41 3060.32 2247.11 3067.22 2266.48C3067.22 2266.48 3082.71 2307.79 3069.77 2346.42C3062.69 2367.56 3042.85 2381.78 3020.56 2381.78Z" fill="#2923ED"></path><path d="M2980.65 2257.9C2934.04 2257.63 2929.43 2231.5 2928.98 2226.27L2930.12 2226.17C2930.55 2231.23 2935.04 2256.5 2980.65 2256.76C3004.14 2256.63 3016.23 2248.23 3022.23 2241.21C3028.69 2233.66 3029.66 2226.1 3029.57 2225.48C3029.57 2225.54 3029.64 2225.71 3029.82 2225.81L3030.37 2224.81C3030.58 2224.92 3031.07 2225.19 3030.23 2228.54C3029.46 2231.6 3026.8 2239.44 3018.8 2246.22C3009.75 2253.88 2996.92 2257.81 2980.65 2257.9Z" fill="#1F2031"></path><path d="M3055.42 2290.92C3048.77 2281.83 3039.21 2275.18 3028.37 2272.16C3007.17 2266.25 2980.64 2266.43 2980.64 2266.43C2980.64 2266.43 2954.08 2265.68 2932.92 2272.16C2922.15 2275.45 2912.52 2281.83 2905.87 2290.92C2900.3 2298.54 2897.27 2305.8 2899 2321.05C2899 2321.05 2899.58 2352.13 2929.88 2355.6H2980.64H3031.41C3061.71 2352.13 3062.29 2321.05 3062.29 2321.05C3064.02 2305.8 3060.99 2298.54 3055.42 2290.92Z" fill="#1F2031"></path><g opacity="0.68"><path d="M2905.87 2302.91C2912.52 2293.82 2922.16 2287.45 2932.92 2284.15C2954.08 2277.68 2980.65 2278.43 2980.65 2278.43C2980.65 2278.43 3007.17 2278.25 3028.37 2284.15C3039.22 2287.17 3048.77 2293.82 3055.42 2302.91C3059.03 2307.85 3061.57 2312.65 3062.44 2319.56C3063.82 2305.32 3060.81 2298.29 3055.42 2290.92C3048.77 2281.83 3039.22 2275.18 3028.37 2272.16C3007.17 2266.25 2980.65 2266.43 2980.65 2266.43C2980.65 2266.43 2954.08 2265.68 2932.92 2272.16C2922.16 2275.45 2912.52 2281.83 2905.87 2290.92C2900.48 2298.29 2897.47 2305.32 2898.85 2319.56C2899.72 2312.65 2902.26 2307.85 2905.87 2302.91Z" fill="#1F2031"></path></g><path d="M2958.03 2313.91C2956.07 2313.91 2954.44 2312.77 2954.33 2311.31C2953.8 2304 2949.67 2299.51 2946.94 2299.51C2944.21 2299.51 2940.08 2304 2939.55 2311.31C2939.44 2312.82 2937.71 2313.99 2935.65 2313.9C2933.61 2313.82 2932.04 2312.53 2932.15 2311.01C2932.86 2301.17 2939.08 2294.02 2946.94 2294.02C2954.8 2294.02 2961.02 2301.17 2961.73 2311.01C2961.84 2312.53 2960.27 2313.82 2958.23 2313.9C2958.16 2313.91 2958.09 2313.91 2958.03 2313.91Z" fill="#F3C532"></path><path d="M3025.44 2313.91C3023.48 2313.91 3021.85 2312.77 3021.74 2311.31C3021.21 2304 3017.08 2299.51 3014.35 2299.51C3011.62 2299.51 3007.49 2304 3006.96 2311.31C3006.85 2312.82 3005.12 2313.99 3003.06 2313.9C3001.02 2313.82 2999.45 2312.53 2999.56 2311.01C3000.27 2301.17 3006.49 2294.02 3014.35 2294.02C3022.21 2294.02 3028.43 2301.17 3029.14 2311.01C3029.25 2312.53 3027.68 2313.82 3025.64 2313.9C3025.57 2313.91 3025.5 2313.91 3025.44 2313.91Z" fill="#F3C532"></path><path d="M2980.65 2345.09C2992.69 2345.11 3000.63 2336.56 2999.72 2330.09C2999.53 2328.18 2997.42 2327.17 2995.62 2327.87C2985.99 2331.6 2975.3 2331.6 2965.67 2327.87C2963.87 2327.17 2961.76 2328.18 2961.57 2330.09C2960.66 2336.56 2968.6 2345.11 2980.65 2345.09Z" fill="white"></path></svg>